<svg viewBox="66 66 522 100" fill="none" xmlns="http://www.w3.org/2000/svg">
<g>
<path d="M296.18 90C298.06 90 299.654 90.5753 300.953 91.6816C302.195 92.7393 303.042 94.1767 303.687 95.708L315.052 122.077L321.794 100.547C321.985 99.8096 322.193 99.0672 322.335 98.2793C322.48 97.4742 322.519 96.797 322.433 96.2754C322.354 95.7978 322.191 95.5506 321.969 95.3828C321.709 95.1861 321.1 94.9004 319.76 94.9004H317.76V90H336.97V94.9004H334.97C332.406 94.9004 330.855 95.8901 329.788 97.1436C328.646 98.4855 327.999 100.203 327.513 101.706L316.177 137.603C312.599 149.004 299.004 160.608 282.268 154.54L280.165 153.777L286.424 141.134L288.068 141.668C297.784 144.825 303.594 144.436 307.026 141.641L289.103 99.6143C287.585 97.2767 284.915 94.9004 281.06 94.9004H279.06V90H296.18Z" fill="white"/>
<path fill-rule="evenodd" clip-rule="evenodd" d="M153.522 89.1904C161.236 89.1904 167.478 92.0017 171.779 96.6758C176.06 101.328 178.293 107.685 178.293 114.59C178.293 121.453 176.058 127.788 171.777 132.428C167.477 137.089 161.236 139.9 153.522 139.9C145.809 139.9 139.568 137.089 135.268 132.428C130.987 127.788 128.753 121.453 128.753 114.59C128.753 107.685 130.985 101.328 135.266 96.6758C139.567 92.0017 145.809 89.1905 153.522 89.1904ZM153.522 94.9902C150.418 94.9903 148.128 96.7092 146.497 100.128C144.825 103.634 144.003 108.692 144.003 114.59C144.003 120.441 144.825 125.476 146.496 128.971C148.126 132.379 150.417 134.1 153.522 134.1C156.628 134.1 158.92 132.379 160.55 128.971C162.221 125.476 163.043 120.441 163.043 114.59C163.043 108.692 162.221 103.634 160.549 100.128C158.918 96.709 156.627 94.9902 153.522 94.9902Z" fill="white"/>
<path fill-rule="evenodd" clip-rule="evenodd" d="M258.479 89.1904C265.317 89.1904 271.048 91.6255 275.067 95.7578C279.078 99.8809 281.269 105.573 281.27 111.89V113.89H270.54C266.916 113.89 261.657 114.994 257.838 117.668C255.958 118.984 254.492 120.634 253.677 122.66C252.895 124.603 252.651 127.046 253.404 130.138C255.189 132.662 257.676 134.1 261.359 134.1C267.887 134.1 272.706 129.375 274.633 121.92L275.021 120.42H281.237L280.465 122.995C279.063 127.668 276.987 131.926 273.596 135.014C270.155 138.147 265.553 139.9 259.47 139.9C251.757 139.9 245.516 137.089 241.215 132.428C236.934 127.788 234.699 121.453 234.699 114.59V113.33C234.699 106.7 236.817 100.649 240.929 96.2383C245.059 91.8073 251.056 89.1905 258.479 89.1904ZM258.479 94.9902C256.929 94.9903 255.718 95.4219 254.729 96.1621C253.716 96.9208 252.83 98.0854 252.101 99.6982C250.622 102.967 249.949 107.714 249.949 113.33V114.59C249.949 115.435 249.969 116.268 250.006 117.085C251.409 115.229 253.191 113.716 255.111 112.513C258.527 110.372 262.495 109.123 265.94 108.546C265.518 104.484 264.841 101.148 263.715 98.7744C263.08 97.4361 262.349 96.5062 261.536 95.9111C260.749 95.3349 259.776 94.9902 258.479 94.9902Z" fill="white"/>
<path fill-rule="evenodd" clip-rule="evenodd" d="M448.36 89.1904C456.074 89.1904 462.316 92.0017 466.617 96.6758C470.898 101.328 473.131 107.685 473.131 114.59C473.131 121.453 470.896 127.788 466.615 132.428C462.315 137.089 456.073 139.9 448.36 139.9C440.647 139.9 434.406 137.089 430.105 132.428C425.825 127.788 423.591 121.453 423.591 114.59C423.591 107.685 425.823 101.328 430.104 96.6758C434.405 92.0017 440.647 89.1905 448.36 89.1904ZM448.36 94.9902C445.256 94.9903 442.965 96.7092 441.335 100.128C439.663 103.634 438.841 108.692 438.841 114.59C438.841 120.441 439.663 125.476 441.334 128.971C442.964 132.379 445.255 134.099 448.36 134.1C451.466 134.1 453.757 132.379 455.388 128.971C457.059 125.476 457.881 120.441 457.881 114.59C457.881 108.692 457.059 103.634 455.387 100.128C453.756 96.709 451.465 94.9902 448.36 94.9902Z" fill="white"/>
<path fill-rule="evenodd" clip-rule="evenodd" d="M500.191 89.1904C507.905 89.1904 514.147 92.0017 518.448 96.6758C522.729 101.328 524.962 107.685 524.962 114.59C524.962 121.453 522.727 127.788 518.446 132.428C514.146 137.089 507.905 139.9 500.191 139.9C492.478 139.9 486.237 137.089 481.937 132.428C477.656 127.788 475.422 121.453 475.422 114.59C475.422 107.685 477.654 101.328 481.935 96.6758C486.236 92.0017 492.478 89.1904 500.191 89.1904ZM500.191 94.9902C497.087 94.9903 494.796 96.7089 493.165 100.128C491.493 103.634 490.672 108.692 490.672 114.59C490.672 120.441 491.493 125.476 493.164 128.971C494.794 132.379 497.086 134.1 500.191 134.1C503.297 134.1 505.589 132.379 507.219 128.971C508.89 125.476 509.712 120.441 509.712 114.59C509.712 108.692 508.89 103.634 507.218 100.128C505.587 96.7089 503.296 94.9902 500.191 94.9902Z" fill="white"/>
<path d="M87.2305 72C88.4722 72.0001 89.69 72.2397 90.751 72.8271C91.5036 72.2079 92.4216 72 93.2598 72H100.66V76.9004H98.6602C97.3377 76.9004 96.4583 77.1686 95.8643 77.5039C95.2772 77.8354 94.8582 78.2938 94.5459 78.8545C93.8773 80.0547 93.7305 81.656 93.7305 83.0898V96.75H108.27V83.0898C108.27 81.656 108.123 80.0547 107.454 78.8545C107.142 78.2938 106.723 77.8354 106.136 77.5039C105.542 77.1686 104.662 76.9004 103.34 76.9004H101.34V72H116.57C117.812 72 119.031 72.2394 120.092 72.8271C120.844 72.2083 121.762 72.0001 122.6 72H130V76.9004H128C126.678 76.9004 125.798 77.1686 125.204 77.5039C124.617 77.8354 124.198 78.2938 123.886 78.8545C123.217 80.0547 123.07 81.656 123.07 83.0898V127.91C123.07 129.344 123.217 130.945 123.886 132.146C124.198 132.706 124.617 133.165 125.204 133.496C125.798 133.831 126.678 134.1 128 134.1H130V139H101.34V134.1H103.34C104.662 134.1 105.542 133.831 106.136 133.496C106.723 133.165 107.142 132.706 107.454 132.146C108.123 130.945 108.27 129.344 108.27 127.91V102.55H93.7305V127.91C93.7305 129.344 93.8773 130.945 94.5459 132.146C94.8582 132.706 95.2772 133.165 95.8643 133.496C96.4583 133.831 97.3377 134.1 98.6602 134.1H100.66V139H72V134.1H74C75.3224 134.1 76.2018 133.831 76.7959 133.496C77.3829 133.165 77.8019 132.706 78.1143 132.146C78.7828 130.945 78.9297 129.344 78.9297 127.91V83.0898C78.9297 81.656 78.7828 80.0547 78.1143 78.8545C77.8019 78.2938 77.3829 77.8354 76.7959 77.5039C76.2018 77.1686 75.3224 76.9004 74 76.9004H72V72H87.2305Z" fill="white"/>
<path d="M199.653 95.7588C203.657 90.7795 209.224 88.4326 214.577 88.8936C222.109 89.5422 228.476 95.6776 229.015 106.117L229.017 106.168V127.91C229.017 129.344 229.164 130.945 229.833 132.146C230.145 132.706 230.564 133.165 231.151 133.496C231.745 133.831 232.625 134.1 233.947 134.1H235.947V139H207.287V134.1H209.287C210.609 134.1 211.488 133.831 212.082 133.496C212.669 133.165 213.089 132.706 213.401 132.146C214.07 130.945 214.217 129.344 214.217 127.91V107.57C214.217 100.998 210.19 98.0074 207.159 98.3311C205.598 98.4978 203.787 99.5094 202.3 102.05C200.798 104.616 199.677 108.693 199.677 114.68V127.91C199.677 129.344 199.825 130.945 200.493 132.146C200.806 132.706 201.224 133.165 201.812 133.496C202.406 133.831 203.284 134.1 204.606 134.1H206.606V139H177.947V134.1H179.947C181.269 134.1 182.148 133.831 182.742 133.496C183.329 133.165 183.748 132.706 184.061 132.146C184.729 130.945 184.877 129.344 184.877 127.91V101C184.877 99.5661 184.729 97.9649 184.061 96.7646C183.748 96.2039 183.329 95.7455 182.742 95.4141C182.148 95.0788 181.269 94.8096 179.947 94.8096H177.947V89.9102H193.177C194.985 89.9102 196.68 90.425 197.921 91.666C199.012 92.7568 199.541 94.1981 199.653 95.7588Z" fill="white"/>
<path d="M386.728 98.2705C390.695 91.6445 397.054 88.411 403.183 88.835C410.832 89.3643 417.35 95.5313 417.89 106.118L417.893 106.169V127.91C417.893 129.344 418.039 130.945 418.708 132.146C419.02 132.706 419.44 133.165 420.027 133.496C420.621 133.831 421.5 134.1 422.822 134.1H424.822V139H396.162V134.1H398.162C399.485 134.1 400.364 133.831 400.958 133.496C401.545 133.165 401.964 132.706 402.276 132.146C402.945 130.945 403.093 129.344 403.093 127.91V107.57C403.093 100.999 399.066 98.0077 396.035 98.3311C394.474 98.4978 392.663 99.5094 391.176 102.05C389.674 104.616 388.553 108.693 388.553 114.68V127.91C388.553 129.344 388.7 130.945 389.368 132.146C389.68 132.706 390.099 133.165 390.687 133.496C391.281 133.831 392.16 134.1 393.482 134.1H395.482V139H366.822V134.1H368.822C370.145 134.1 371.024 133.831 371.618 133.496C372.205 133.165 372.624 132.706 372.937 132.146C373.605 130.945 373.753 129.344 373.753 127.91V107.57C373.753 100.999 369.726 98.0078 366.695 98.3311C365.134 98.4978 363.323 99.5094 361.836 102.05C360.334 104.616 359.213 108.692 359.213 114.68V127.91C359.213 129.344 359.36 130.945 360.028 132.146C360.341 132.706 360.76 133.165 361.347 133.496C361.941 133.831 362.82 134.1 364.143 134.1H366.143V139H337.482V134.1H339.482C340.805 134.1 341.684 133.831 342.278 133.496C342.865 133.165 343.284 132.706 343.597 132.146C344.265 130.945 344.412 129.344 344.412 127.91V101C344.412 99.5662 344.265 97.9649 343.597 96.7646C343.284 96.204 342.865 95.7455 342.278 95.4141C341.684 95.0787 340.805 94.8096 339.482 94.8096H337.482V89.9102H352.713C354.521 89.9102 356.216 90.4251 357.457 91.666C358.541 92.7499 359.07 94.1802 359.187 95.7295C362.966 91.0136 368.143 88.6623 373.227 88.8193C378.912 88.9951 384.106 92.3026 386.728 98.2705Z" fill="white"/>
<path d="M546.322 95.7588C550.326 90.7796 555.893 88.4325 561.246 88.8936C568.778 89.5423 575.143 95.6777 575.683 106.117L575.686 106.168V127.91C575.686 129.344 575.833 130.945 576.502 132.146C576.814 132.706 577.233 133.165 577.82 133.496C578.414 133.831 579.293 134.1 580.615 134.1H582.615V139H553.956V134.1H555.956C557.278 134.1 558.157 133.831 558.751 133.496C559.338 133.165 559.757 132.706 560.069 132.146C560.738 130.945 560.886 129.344 560.886 127.91V107.57C560.886 100.999 556.859 98.0075 553.828 98.3311C552.267 98.4978 550.455 99.5094 548.969 102.05C547.467 104.616 546.346 108.693 546.346 114.68V127.91C546.346 129.344 546.493 130.945 547.161 132.146C547.474 132.706 547.893 133.165 548.48 133.496C549.075 133.831 549.953 134.1 551.275 134.1H553.275V139H524.615V134.1H526.615C527.938 134.1 528.817 133.831 529.411 133.496C529.998 133.165 530.417 132.706 530.729 132.146C531.398 130.945 531.546 129.344 531.546 127.91V101C531.546 99.5661 531.398 97.9649 530.729 96.7646C530.417 96.2039 529.998 95.7455 529.411 95.4141C528.817 95.0787 527.938 94.8096 526.615 94.8096H524.615V89.9102H539.846C541.654 89.9102 543.349 90.425 544.59 91.666C545.681 92.7568 546.21 94.1981 546.322 95.7588Z" fill="white"/>
</g>
</svg>
