<?xml version="1.0" encoding="UTF-8"?>
<svg width="1200pt" height="1200pt" version="1.1" viewBox="0 0 1200 1200" xmlns="http://www.w3.org/2000/svg">
 <path d="m1101 285.05c-0.60938-17.719-2.625-35.344-6-52.734-17.484-87.891-75.609-144.61-165.94-149.81-112.22-6.4688-203.58 61.688-263.11 151.6v0.046876c-39.281 60.234-69.328 125.95-89.203 195.1-45.047-95.906-117.84-183.79-215.16-227.34-68.109-30.469-157.87-32.297-208.13 31.406l0.046875-0.046875c-21.891 28.594-35.297 62.766-38.766 98.625-84.188 98.156-63.234 258.52 8.4375 364.18 107.95 159.1 295.08 252.32 468.56 321.14 6.0469 2.3906 35.953-7.4531 28.453-12.75-171.52-120.84-351.05-285.84-436.45-480.24-24.891-62.719-36.375-129.98-33.656-197.44 2.8594-3.1875 5.5312-6.5625 8.5781-9.6094 69.609-69.094 154.08-39.422 224.58 18.094 80.25 65.484 142.64 159.71 185.11 253.69 3.7031 8.2031 30.984 1.0312 32.391-6.8906 20.062-112.83 107.02-206.58 200.26-267.32 72.422-47.156 199.82-99.094 265.36-22.641-0.46875 95.391-35.062 202.82-67.031 265.03-88.734 172.64-236.58 307.45-396.47 413.29-14.016 9.2812 18.469 7.1719 25.359 2.625 154.22-102.09 295.74-229.97 387.79-392.29 41.203-69.797 68.906-146.76 81.609-226.87 30.516 105.94-21.281 237.66-74.25 324.71-72.375 118.97-176.48 217.26-286.5 301.18-61.781 48.141-127.31 91.312-195.94 129.05-19.078 10.219 10.5 11.062 19.312 6.3281 196.13-105.05 394.45-263.29 505.18-458.39 53.391-94.078 117.33-273.56 35.578-371.68zm-938.9 271.13c56.672 114.98 145.03 213.79 237.32 301.4 37.031 35.156 75.422 69.422 115.31 101.72-195.19-89.859-418.22-235.55-424.82-459.1-1.2188-40.453 6.8906-80.625 23.625-117.42 4.875 60.375 21.375 119.25 48.562 173.39zm666.42-274.78c-103.73 52.359-207.61 144.84-247.45 258.28-74.953-144.32-230.39-346.92-399.47-260.11-9.75 5.0156-19.125 10.688-28.078 16.969 10.688-61.875 44.016-108.23 118.41-99.703 140.53 16.078 246.32 165.37 291.37 286.26 3.2344 8.625 30.75 0.65625 32.391-6.8906 32.156-150.37 132.56-391.64 318.42-378.42 101.06 7.2188 141.94 73.781 150.47 156.61-70.219-39.188-170.58-6.0469-236.06 27z"/>
</svg>
