<svg width="567" height="141" viewBox="0 0 567 141" fill="none" xmlns="http://www.w3.org/2000/svg">
<g filter="url(#filter0_d_106_14)">
<path d="M252.18 46C254.06 46 255.653 46.5755 256.952 47.6816C258.194 48.7393 259.042 50.1767 259.687 51.708L271.052 78.0771L277.794 56.5469C277.985 55.8095 278.193 55.0671 278.335 54.2793C278.48 53.4742 278.519 52.797 278.433 52.2754C278.354 51.7979 278.191 51.5506 277.969 51.3828C277.709 51.1861 277.1 50.9004 275.76 50.9004H273.76V46H292.97V50.9004H290.97C288.406 50.9004 286.854 51.8901 285.787 53.1436C284.645 54.4854 283.999 56.2031 283.513 57.7061L272.177 93.6025C268.599 105.004 255.004 116.608 238.268 110.54L236.165 109.777L242.424 97.1338L244.067 97.668C253.783 100.825 259.593 100.436 263.025 97.6406L245.103 55.6143C243.585 53.2767 240.915 50.9004 237.06 50.9004H235.06V46H252.18Z" fill="white"/>
<path fill-rule="evenodd" clip-rule="evenodd" d="M109.521 45.1904C117.235 45.1904 123.478 48.0017 127.779 52.6758C132.06 57.3279 134.293 63.685 134.293 70.5898C134.293 77.4527 132.058 83.7878 127.777 88.4277C123.477 93.0887 117.235 95.9004 109.521 95.9004C101.809 95.9003 95.5675 93.0886 91.2676 88.4277C86.9868 83.7878 84.7529 77.4527 84.7529 70.5898C84.753 63.685 86.9847 57.3279 91.2656 52.6758C95.5665 48.0018 101.809 45.1906 109.521 45.1904ZM109.521 50.9902C106.418 50.9905 104.128 52.7094 102.497 56.1279C100.825 59.6339 100.003 64.6919 100.003 70.5898C100.003 76.4407 100.825 81.4757 102.496 84.9707C104.126 88.3785 106.417 90.0994 109.521 90.0996C112.627 90.0996 114.92 88.3787 116.55 84.9707C118.221 81.4757 119.043 76.4407 119.043 70.5898C119.043 64.6919 118.221 59.6339 116.549 56.1279C114.918 52.709 112.626 50.9902 109.521 50.9902Z" fill="white"/>
<path fill-rule="evenodd" clip-rule="evenodd" d="M214.479 45.1904C221.317 45.1905 227.048 47.6256 231.067 51.7578C235.078 55.8808 237.269 61.5728 237.271 67.8896V69.8896H226.54C222.916 69.8897 217.657 70.994 213.838 73.668C211.958 74.9839 210.492 76.6342 209.677 78.6602C208.895 80.6031 208.651 83.046 209.404 86.1377C211.189 88.6617 213.676 90.0996 217.359 90.0996C223.887 90.0995 228.706 85.3748 230.633 77.9199L231.021 76.4199H237.237L236.465 78.9951C235.063 83.6678 232.987 87.9257 229.597 91.0137C226.156 94.1466 221.553 95.9003 215.471 95.9004C207.758 95.9004 201.516 93.0887 197.215 88.4277C192.934 83.7878 190.699 77.4527 190.699 70.5898V69.3301C190.699 62.7001 192.818 56.649 196.93 52.2383C201.06 47.8074 207.057 45.1905 214.479 45.1904ZM214.479 50.9902C212.93 50.9903 211.718 51.422 210.729 52.1621C209.717 52.9208 208.831 54.0855 208.102 55.6982C206.623 58.967 205.949 63.7141 205.949 69.3301V70.5898C205.949 71.4348 205.969 72.268 206.006 73.085C207.409 71.229 209.191 69.7157 211.111 68.5127C214.527 66.3718 218.496 65.1229 221.94 64.5459C221.518 60.4839 220.841 57.148 219.715 54.7744C219.08 53.4362 218.349 52.5062 217.536 51.9111C216.749 51.335 215.776 50.9903 214.479 50.9902Z" fill="white"/>
<path fill-rule="evenodd" clip-rule="evenodd" d="M404.359 45.1904C412.073 45.1904 418.316 48.0017 422.617 52.6758C426.898 57.3279 429.131 63.685 429.131 70.5898C429.131 77.4527 426.896 83.7878 422.615 88.4277C418.315 93.0887 412.072 95.9004 404.359 95.9004C396.647 95.9003 390.405 93.0886 386.104 88.4277C381.825 83.7878 379.591 77.4527 379.591 70.5898C379.591 63.685 381.823 57.3279 386.104 52.6758C390.404 48.0018 396.647 45.1906 404.359 45.1904ZM404.359 50.9902C401.256 50.9905 398.965 52.7094 397.335 56.1279C395.663 59.6339 394.841 64.6919 394.841 70.5898C394.841 76.4407 395.663 81.4757 397.334 84.9707C398.964 88.3785 401.255 90.0985 404.359 90.0996C407.465 90.0996 409.757 88.3787 411.388 84.9707C413.059 81.4757 413.881 76.4407 413.881 70.5898C413.881 64.6919 413.059 59.6339 411.387 56.1279C409.756 52.709 407.464 50.9902 404.359 50.9902Z" fill="white"/>
<path fill-rule="evenodd" clip-rule="evenodd" d="M456.19 45.1904C463.904 45.1904 470.147 48.0017 474.448 52.6758C478.729 57.3279 480.962 63.685 480.962 70.5898C480.962 77.4527 478.727 83.7878 474.446 88.4277C470.146 93.0887 463.904 95.9004 456.19 95.9004C448.478 95.9003 442.236 93.0886 437.937 88.4277C433.656 83.7878 431.422 77.4527 431.422 70.5898C431.422 63.685 433.654 57.3279 437.935 52.6758C442.235 48.0018 448.478 45.1905 456.19 45.1904ZM456.19 50.9902C453.087 50.9905 450.796 52.7091 449.165 56.1279C447.493 59.6339 446.672 64.6919 446.672 70.5898C446.672 76.4408 447.493 81.4757 449.164 84.9707C450.794 88.3785 453.086 90.0994 456.19 90.0996C459.296 90.0996 461.589 88.3787 463.219 84.9707C464.89 81.4757 465.712 76.4407 465.712 70.5898C465.712 64.6919 464.89 59.6339 463.218 56.1279C461.587 52.7089 459.295 50.9902 456.19 50.9902Z" fill="white"/>
<path d="M43.2305 28C44.4722 28.0001 45.69 28.2397 46.751 28.8271C47.5036 28.208 48.4216 28 49.2598 28H56.6602V32.9004H54.6602C53.3377 32.9004 52.4583 33.1686 51.8643 33.5039C51.2772 33.8354 50.8582 34.2938 50.5459 34.8545C49.8773 36.0547 49.7305 37.656 49.7305 39.0898V52.75H64.2695V39.0898C64.2695 37.6561 64.1231 36.0547 63.4541 34.8545C63.1421 34.2938 62.7227 33.8354 62.1357 33.5039C61.5417 33.1687 60.6617 32.9004 59.3398 32.9004H57.3398V28H72.5703C73.8122 28 75.0309 28.2396 76.0918 28.8271C76.8437 28.2084 77.7617 28.0002 78.5996 28H86V32.9004H84C82.6781 32.9004 81.7981 33.1686 81.2041 33.5039C80.6171 33.8354 80.1977 34.2938 79.8857 34.8545C79.2168 36.0547 79.0703 37.6561 79.0703 39.0898V83.9102C79.0703 85.3441 79.2168 86.9455 79.8857 88.1465C80.1977 88.7064 80.6172 89.1651 81.2041 89.4961C81.7981 89.8311 82.6781 90.0996 84 90.0996H86V95H57.3398V90.0996H59.3398C60.6617 90.0996 61.5417 89.831 62.1357 89.4961C62.7226 89.1652 63.1421 88.7063 63.4541 88.1465C64.1231 86.9455 64.2695 85.3441 64.2695 83.9102V58.5498H49.7305V83.9102C49.7305 85.3441 49.8773 86.9455 50.5459 88.1465C50.8582 88.7063 51.2773 89.1652 51.8643 89.4961C52.4583 89.8311 53.3377 90.0996 54.6602 90.0996H56.6602V95H28V90.0996H30C31.3224 90.0996 32.2018 89.8311 32.7959 89.4961C33.3828 89.1652 33.8019 88.7063 34.1143 88.1465C34.7827 86.9455 34.9297 85.3441 34.9297 83.9102V39.0898C34.9297 37.656 34.7828 36.0547 34.1143 34.8545C33.8019 34.2938 33.3829 33.8354 32.7959 33.5039C32.2018 33.1686 31.3224 32.9004 30 32.9004H28V28H43.2305Z" fill="white"/>
<path d="M155.653 51.7588C159.657 46.7795 165.224 44.4326 170.577 44.8936C178.109 45.5422 184.477 51.6778 185.016 62.1172L185.018 62.168V83.9102C185.018 85.3439 185.164 86.9446 185.833 88.1455C186.145 88.7055 186.564 89.1651 187.151 89.4961C187.745 89.8311 188.625 90.0996 189.947 90.0996H191.947V95H163.287V90.0996H165.287C166.609 90.0996 167.488 89.831 168.082 89.4961C168.669 89.1651 169.089 88.7055 169.401 88.1455C170.07 86.9446 170.217 85.344 170.217 83.9102V63.5703C170.217 56.9983 166.19 54.0074 163.159 54.3311C161.598 54.4978 159.787 55.5092 158.3 58.0498C156.798 60.6158 155.678 64.6929 155.678 70.6797V83.9102C155.678 85.344 155.825 86.9446 156.493 88.1455C156.806 88.7055 157.225 89.1651 157.812 89.4961C158.406 89.831 159.285 90.0996 160.606 90.0996H162.606V95H133.947V90.0996H135.947C137.269 90.0996 138.148 89.8311 138.742 89.4961C139.329 89.1651 139.749 88.7055 140.062 88.1455C140.729 86.9446 140.877 85.3439 140.877 83.9102V57C140.877 55.5662 140.729 53.9649 140.062 52.7646C139.749 52.2039 139.329 51.7455 138.742 51.4141C138.148 51.0788 137.269 50.8096 135.947 50.8096H133.947V45.9102H149.178C150.985 45.9102 152.68 46.4252 153.921 47.666C155.012 48.7568 155.541 50.1981 155.653 51.7588Z" fill="white"/>
<path d="M342.729 54.2705C346.696 47.6445 353.055 44.411 359.184 44.835C366.833 45.3643 373.351 51.5315 373.891 62.1182L373.894 62.1689V83.9102C373.894 85.3441 374.039 86.9455 374.708 88.1465C375.02 88.7064 375.44 89.1651 376.027 89.4961C376.621 89.8311 377.5 90.0996 378.822 90.0996H380.822V95H352.162V90.0996H354.162C355.485 90.0996 356.364 89.831 356.958 89.4961C357.545 89.1652 357.964 88.7063 358.276 88.1465C358.945 86.9455 359.094 85.3441 359.094 83.9102V63.5703C359.094 56.9993 355.066 54.0077 352.035 54.3311C350.474 54.4978 348.664 55.5096 347.177 58.0498C345.675 60.6158 344.554 64.6929 344.554 70.6797V83.9102C344.554 85.3441 344.7 86.9455 345.368 88.1465C345.68 88.7064 346.1 89.1651 346.688 89.4961C347.281 89.8311 348.16 90.0996 349.482 90.0996H351.482V95H322.822V90.0996H324.822C326.145 90.0996 327.024 89.831 327.618 89.4961C328.205 89.1652 328.625 88.7063 328.938 88.1465C329.605 86.9455 329.754 85.3441 329.754 83.9102V63.5703C329.754 56.9993 325.726 54.0078 322.695 54.3311C321.134 54.4978 319.324 55.5095 317.837 58.0498C316.335 60.6158 315.214 64.6919 315.214 70.6797V83.9102C315.214 85.3441 315.36 86.9455 316.028 88.1465C316.341 88.7063 316.761 89.1652 317.348 89.4961C317.942 89.831 318.821 90.0996 320.144 90.0996H322.144V95H293.482V90.0996H295.482C296.805 90.0996 297.684 89.8311 298.278 89.4961C298.865 89.1651 299.285 88.7064 299.598 88.1465C300.266 86.9455 300.412 85.3441 300.412 83.9102V57C300.412 55.5663 300.266 53.9649 299.598 52.7646C299.285 52.204 298.865 51.7455 298.278 51.4141C297.684 51.0787 296.805 50.8096 295.482 50.8096H293.482V45.9102H308.714C310.522 45.9102 312.216 46.4254 313.457 47.666C314.541 48.7499 315.07 50.1802 315.188 51.7295C318.966 47.0136 324.144 44.6623 329.228 44.8193C334.912 44.9952 340.107 48.3027 342.729 54.2705Z" fill="white"/>
<path d="M502.322 51.7588C506.326 46.7796 511.893 44.4325 517.246 44.8936C524.778 45.5423 531.144 51.6779 531.684 62.1172L531.687 62.168V83.9102C531.687 85.3441 531.833 86.9455 532.502 88.1465C532.814 88.7064 533.233 89.1651 533.82 89.4961C534.414 89.8311 535.293 90.0996 536.615 90.0996H538.615V95H509.956V90.0996H511.956C513.278 90.0996 514.157 89.831 514.751 89.4961C515.338 89.1652 515.757 88.7063 516.069 88.1465C516.738 86.9455 516.887 85.3441 516.887 83.9102V63.5703C516.887 56.9993 512.859 54.0075 509.828 54.3311C508.267 54.4978 506.456 55.5095 504.97 58.0498C503.468 60.6158 502.347 64.6929 502.347 70.6797V83.9102C502.347 85.3441 502.493 86.9455 503.161 88.1465C503.474 88.7063 503.894 89.1652 504.48 89.4961C505.075 89.831 505.954 90.0996 507.275 90.0996H509.275V95H480.615V90.0996H482.615C483.938 90.0996 484.817 89.8311 485.411 89.4961C485.998 89.1651 486.418 88.7064 486.729 88.1465C487.398 86.9455 487.546 85.3441 487.546 83.9102V57C487.546 55.5662 487.398 53.9649 486.729 52.7646C486.417 52.2039 485.998 51.7455 485.411 51.4141C484.817 51.0787 483.938 50.8096 482.615 50.8096H480.615V45.9102H495.847C497.654 45.9102 499.349 46.4253 500.59 47.666C501.681 48.7568 502.21 50.1981 502.322 51.7588Z" fill="white"/>
</g>
<defs>
<filter id="filter0_d_106_14" x="0" y="0" width="566.615" height="140.207" filterUnits="userSpaceOnUse" color-interpolation-filters="sRGB">
<feFlood flood-opacity="0" result="BackgroundImageFix"/>
<feColorMatrix in="SourceAlpha" type="matrix" values="0 0 0 0 0 0 0 0 0 0 0 0 0 0 0 0 0 0 127 0" result="hardAlpha"/>
<feOffset/>
<feGaussianBlur stdDeviation="14"/>
<feComposite in2="hardAlpha" operator="out"/>
<feColorMatrix type="matrix" values="0 0 0 0 0 0 0 0 0 0 0 0 0 0 0 0 0 0 1 0"/>
<feBlend mode="normal" in2="BackgroundImageFix" result="effect1_dropShadow_106_14"/>
<feBlend mode="normal" in="SourceGraphic" in2="effect1_dropShadow_106_14" result="shape"/>
</filter>
</defs>
</svg>
