<?xml version="1.0" encoding="UTF-8"?>
<svg version="1.1" xmlns="http://www.w3.org/2000/svg" width="1223" height="275">
<path d="M0 0 C393.36 0 786.72 0 1192 0 C1192 83.49 1192 166.98 1192 253 C798.64 253 405.28 253 0 253 C0 169.51 0 86.02 0 0 Z M108 5 C106.5654527 5.37098611 105.12765309 5.72953394 103.6875 6.078125 C70.02803643 14.42767614 40.36007746 32.85805464 22 63 C14.73729952 75.11364663 9.54927332 87.33818701 6 101 C5.66097656 102.24265625 5.32195313 103.4853125 4.97265625 104.765625 C-2.25971203 136.09477792 4.92318909 169.70511094 21.59741211 196.82397461 C25.02509542 202.20826667 28.80195055 207.18909661 33 212 C33.80953125 212.95390625 34.6190625 213.9078125 35.453125 214.890625 C43.43898337 224.09572104 52.53733332 231.72239999 63 238 C111.51 238 160.02 238 210 238 C211.76714502 233.58213745 212.21744766 232.23485077 211.9921875 227.8515625 C211.63585662 213.00965918 214.38504238 203.51736541 221.78515625 190.76171875 C231.96355825 173.14467413 239.43471458 150.67998841 239.6640625 130.19921875 C240 127 240 127 243 121 C247.95 117.37 252.9 113.74 258 110 C261.58369636 103.46352358 261.58369636 103.46352358 260 98 C255.643098 96.80872469 252.12042737 97.23320313 247.6875 97.9375 C246.43324219 98.13214844 245.17898438 98.32679687 243.88671875 98.52734375 C242.45779297 98.76130859 242.45779297 98.76130859 241 99 C241.97854138 96.52075441 242.95859537 94.08510951 244.125 91.6875 C246.32884228 84.91855586 244.81286931 79.11865492 242.125 72.8125 C241.81546387 72.07636475 241.50592773 71.34022949 241.18701172 70.58178711 C237.87565106 63.1154534 233.32988234 57.13099962 228 51 C227.22140625 50.09507813 226.4428125 49.19015625 225.640625 48.2578125 C223.469662 45.79489241 221.25002375 43.39065023 219 41 C218.401875 40.33742187 217.80375 39.67484375 217.1875 38.9921875 C206.78076614 27.91260446 193.8206057 20.05713708 180 14 C179.37577148 13.72317383 178.75154297 13.44634766 178.10839844 13.16113281 C157.45755588 4.2027087 129.92681702 -2.36927223 108 5 Z M646 13 C626.6083725 44.026604 602.24887491 92.06169568 609.53515625 129.76953125 C610.8903161 134.23489402 612.77545372 137.55307121 616 141 C621.67428607 143.77924215 626.0092217 145.17532073 632.34765625 143.30859375 C640.7388874 140.20889631 647.96982786 135.61373718 654 129 C654.37511719 129.60328125 654.75023437 130.2065625 655.13671875 130.828125 C659.05901806 136.95363022 662.69282013 141.96078701 670 144 C675.51600966 144.30873188 678.86257791 143.57940977 683.8125 141.125 C684.89144531 140.59132813 685.97039062 140.05765625 687.08203125 139.5078125 C690.07838265 138.02778861 690.07838265 138.02778861 693 136 C693.33 137.32 693.66 138.64 694 140 C699.63019987 144.5547002 699.63019987 144.5547002 706 144 C709.85790492 141.22152371 711.98305799 138.78351248 714.12890625 134.5546875 C714.68296143 133.48613525 715.2370166 132.41758301 715.80786133 131.31665039 C716.38689209 130.18090576 716.96592285 129.04516113 717.5625 127.875 C736.24371583 92.24043907 736.24371583 92.24043907 751 81 C752.65 81 754.3 81 756 81 C754.96360896 89.40411446 752.40879524 96.12296914 748.5625 103.625 C741.98555854 115.72177906 741.98555854 115.72177906 739.8125 129.0625 C739.874375 130.361875 739.93625 131.66125 740 133 C743.8407538 140.89319609 743.8407538 140.89319609 750 145 C752.88211302 145.96070434 754.69850044 146.10581883 757.6875 146.0625 C758.49574219 146.05347656 759.30398438 146.04445312 760.13671875 146.03515625 C770.99396455 145.83030256 782.56072482 134.73473963 789.62939453 127.43115234 C790.08169434 126.95887207 790.53399414 126.4865918 791 126 C791.78246094 125.20207031 792.56492187 124.40414062 793.37109375 123.58203125 C800.03463479 116.46501672 806.75227815 107.68849005 807.125 97.625 C807.28728734 94.83883881 807.28728734 94.83883881 805 93 C803.02 93 801.04 93 799 93 C794.62339611 97.52704965 791.189044 102.18743083 788 107.625 C784.86839932 112.89122692 781.93484311 116.4016769 777 120 C770 121 770 121 767 119 C764.74807283 112.01902578 767.62956991 105.39473333 770.78515625 99.1953125 C771.86680061 97.16607933 772.95947754 95.14269255 774.0625 93.125 C775.15927274 91.08686249 776.2544037 89.0478404 777.34765625 87.0078125 C777.83242432 86.11723145 778.31719238 85.22665039 778.81665039 84.30908203 C780.69688851 80.64015443 781.11531242 77.87905643 781.0625 73.8125 C781.05347656 72.91144531 781.04445313 72.01039062 781.03515625 71.08203125 C780.9784437 67.72338782 778.90253938 65.69526413 777 63 C772.08801226 58.90667688 772.32036549 59.92448505 764 59 C753.96358711 63.48054147 747.78067938 69.91552799 741.078125 78.546875 C738.29746987 81.82930249 736.08270544 83.63909819 732 85 C733.98 78.73 735.96 72.46 738 66 C737.51643916 60.69275139 737.51643916 60.69275139 733 58 C724.32827341 56.11618698 724.32827341 56.11618698 719 60 C717.95460652 62.64441249 716.91316459 65.29024761 715.875 67.9375 C715.55732666 68.74493652 715.23965332 69.55237305 714.91235352 70.38427734 C713.03471034 75.19992392 711.29340643 80.03554506 709.66674805 84.94116211 C707.66863911 90.92478596 705.74845752 96.26826584 701.56640625 101.10546875 C699.59882189 103.48521542 698.0931211 106.04396939 696.5 108.6875 C693.37134238 113.6891899 690.36105334 117.31947333 685 120 C682.69 120 680.38 120 678 120 C675.49193875 112.47581625 677.12198261 106.74126553 680.55712891 99.79052734 C681.05390137 98.82840332 681.55067383 97.8662793 682.0625 96.875 C683.07200228 94.84394265 684.08111635 92.81269231 685.08984375 90.78125 C685.83403564 89.30591797 685.83403564 89.30591797 686.59326172 87.80078125 C688.49325801 84.01793545 690.32352425 80.20552697 692.125 76.375 C692.66382813 75.24835938 693.20265625 74.12171875 693.7578125 72.9609375 C694.88634707 70.27090857 695.56197243 67.87388822 696 65 C691.25125462 60.25125462 689.16433559 59.07157805 683 58 C678.14035712 58.52067602 676.98659183 58.9236937 673.9375 62.5625 C667.54270543 70.80467967 663.77866625 80.51316896 660.4375 90.3125 C658.32355895 96.44707404 655.5892627 101.61610595 652 107 C651.46890625 107.82757813 650.9378125 108.65515625 650.390625 109.5078125 C648.13708019 112.97737901 646.02466243 116.15378373 643 119 C635.25 120 635.25 120 633 120 C631.26313092 89.63695534 647.87436224 59.89725262 660.96582031 33.62182617 C663.03490125 29.39608643 664.54820693 25.75531349 665 21 C662.93491457 17.17959196 661.62872197 15.72154148 658 13 C654.04 13 650.08 13 646 13 Z M690 27 C688.8422494 30.47325181 688.93133348 33.36067448 689 37 C691.31537955 40.72114571 693.28579473 43.61229661 697 46 C704.90754997 47.73960026 704.90754997 47.73960026 711 44 C714.94324222 38.39975495 714.94324222 38.39975495 714 28 C710.30600031 21.99824874 710.30600031 21.99824874 705 20 C698.58051906 19.71468974 694.27997374 22.22618313 690 27 Z M827 22 C824.84943203 26.72591124 822.71372561 31.45815649 820.59130859 36.19677734 C819.86778383 37.80666042 819.14028493 39.4147637 818.40869141 41.02099609 C817.35561062 43.33490829 816.31715741 45.65492041 815.28125 47.9765625 C814.95314331 48.68930328 814.62503662 49.40204407 814.2869873 50.13638306 C812.4638972 54.26596949 811.62166094 57.39056917 812 62 C816.11785113 65.58925565 816.11785113 65.58925565 823 66 C834.33500225 61.17659479 840.2808801 48.76970577 845 38 C845.96070434 35.11788698 846.10581883 33.30149956 846.0625 30.3125 C846.05347656 29.50425781 846.04445313 28.69601563 846.03515625 27.86328125 C846.19739678 25.0413273 846.19739678 25.0413273 841 21 C831.75649007 19.1767608 831.75649007 19.1767608 827 22 Z M333.73876953 22.5793457 C330.65998681 25.30051977 328.98739518 28.1178912 327.1796875 31.73046875 C326.83914337 32.38919479 326.49859924 33.04792084 326.1477356 33.72660828 C325.04348508 35.87372368 323.95807012 38.02963157 322.875 40.1875 C322.49972168 40.92752258 322.12444336 41.66754517 321.73779297 42.42999268 C300.97904378 82.21518078 300.97904378 82.21518078 291.375 125.5 C291.30023438 126.7271875 291.22546875 127.954375 291.1484375 129.21875 C290.92923428 133.3259261 292.9112214 136.50313104 295 140 C298.78822344 143.44383949 299.75008645 143.95001729 305 145 C314.56911725 137.3447062 316.50957633 123.01635423 319.22851562 111.7109375 C321.52988665 102.63541319 324.30925379 92.76805966 332 87 C341.66166454 85.16902466 350.29403848 84.34792144 360 86 C360.33 86.33 360.66 86.66 361 87 C360.67243727 95.30166794 358.83363545 102.34736423 356 110.125 C351.11966347 122.28895593 351.11966347 122.28895593 352.625 134.6875 C354.74098455 138.97274928 357.16225302 141.20891129 361 144 C363.31 144.33 365.62 144.66 368 145 C371.07228092 142.40276365 371.07228092 142.40276365 371.66748047 139.76635742 C382.43916529 103.91519973 395.68072391 69.23111665 413 36 C413.83292673 27.97397104 413.83292673 27.97397104 409 23 C403.07798129 20.50611852 403.07798129 20.50611852 397 22 C391.19467459 25.56841103 388.98809393 31.17010658 386.0625 37.0625 C384.04687995 41.0443249 382.02778106 45.02435363 380 49 C379.48034668 50.02077637 378.96069336 51.04155273 378.42529297 52.09326172 C377.91240723 53.07182129 377.39952148 54.05038086 376.87109375 55.05859375 C376.41532959 55.93700928 375.95956543 56.8154248 375.48999023 57.72045898 C374 60 374 60 370 63 C360.1 63.33 350.2 63.66 340 64 C342.25007907 53.87464418 342.25007907 53.87464418 343.875 50.54296875 C344.22046875 49.82302734 344.5659375 49.10308594 344.921875 48.36132812 C345.27765625 47.64396484 345.6334375 46.92660156 346 46.1875 C346.35578125 45.45080078 346.7115625 44.71410156 347.078125 43.95507812 C348.69148475 40.62300865 350.34236456 37.3102283 352 34 C352 32.35 352 30.7 352 29 C343.98031256 20.89539514 343.98031256 20.89539514 333.73876953 22.5793457 Z M926 23 C921.74737732 28.25416791 917.85300686 33.4249007 914.75 39.4375 C914.3785083 40.15228516 914.0070166 40.86707031 913.62426758 41.60351562 C900.99967494 66.47226941 890.72587364 93.67448388 883.25 120.5625 C883.00983154 121.4174707 882.76966309 122.27244141 882.5222168 123.15332031 C881.19034952 128.24190791 880.78316066 132.74164612 881 138 C886.46239847 144.55487816 890.33121259 146.35441897 898.73974609 147.31201172 C901.56223005 147.43722079 904.36241114 147.4680183 907.1875 147.4375 C908.19562744 147.42847656 909.20375488 147.41945313 910.24243164 147.41015625 C928.39404182 146.99231086 945.34437416 139.94522422 959 128 C959.64839844 127.49339844 960.29679688 126.98679687 960.96484375 126.46484375 C978.07341034 112.67635543 987.36588629 91.39294217 990 70 C990.83050483 58.94789721 988.83602209 48.89703173 982 40 C979.72926391 37.31256494 979.72926391 37.31256494 977 35 C976.20722656 34.27683594 976.20722656 34.27683594 975.3984375 33.5390625 C964.45498179 24.36518686 950.83203403 22.82777621 937.125 22.9375 C936.05507813 22.94201172 934.98515625 22.94652344 933.8828125 22.95117188 C931.25515014 22.96290251 928.62760462 22.97931772 926 23 Z M584 60 C580.67792801 63.32207199 579.56054085 67.42882882 579 72 C579.12018777 76.26313073 579.74607534 80.4560474 580.4375 84.66015625 C581.74964318 94.15952612 579.41649359 102.12905922 573.75 109.875 C569.69007694 114.6874088 565.03780445 118.98739852 559 121 C556.66700175 121.03954234 554.33291811 121.04401732 552 121 C549.17553988 115.35107977 551.15542943 108.83842523 553 103.1875 C554.54015579 98.70641587 556.26570485 94.31503937 558.078125 89.9375 C558.43648437 89.06714111 558.79484375 88.19678223 559.1640625 87.30004883 C559.86904788 85.60399474 560.58708906 83.91328701 561.3203125 82.22924805 C563.72888199 76.48147235 564.70727974 71.22030547 565 65 C562.48574449 59.795476 562.48574449 59.795476 558 58 C550.15575672 58.60533782 550.15575672 58.60533782 546.31005859 63.31005859 C539.33634641 72.30596536 535.68069924 84.51963146 531.7277832 95.02856445 C527.89306057 104.98230961 523.45108962 112.40815009 515 119 C510.545 119.495 510.545 119.495 506 120 C505.505 119.505 505.505 119.505 505 119 C505.03709969 109.03873364 508.00123747 100.95219435 512 92 C512.95986638 89.83179643 513.91842127 87.6630355 514.87451172 85.49316406 C515.48506624 84.11441053 516.10225138 82.73856797 516.72705078 81.36621094 C518.96019325 76.38978494 520.15474997 72.13024797 520.0625 66.6875 C520.041875 65.470625 520.02125 64.25375 520 63 C516.02033623 59.02033623 514.94923998 58.12207119 509.640625 57.90234375 C508.45726562 57.91974609 508.45726562 57.91974609 507.25 57.9375 C506.05117188 57.95103516 506.05117188 57.95103516 504.828125 57.96484375 C502.70600977 57.80306399 502.70600977 57.80306399 500.71875 60.109375 C486.00612112 75.7521126 480.7026027 107.8290375 480.9375 128.5 C480.94652344 129.5415625 480.95554687 130.583125 480.96484375 131.65625 C481.01548119 135.03207941 482.35863373 137.05686049 484 140 C489.43008555 145.14429158 493.93740011 146.23633996 501.20703125 146.0703125 C508.41936193 145.787476 517.00313832 138.71295053 523 135 C531 135 531 135 533.265625 136.8984375 C534.25046875 137.71570313 535.2353125 138.53296875 536.25 139.375 C537.22453125 140.18710938 538.1990625 140.99921875 539.203125 141.8359375 C544.50374147 145.93725248 548.3678115 146.44345986 555 146 C569.41698732 143.33524879 581.11297833 133.54867853 589.36328125 121.75390625 C600.4259919 104.39940912 604.25670315 87.30807159 604 67 C601.88659256 62.47569668 600.11895436 59.89440036 596 57 C589.03587909 56.88015809 589.03587909 56.88015809 584 60 Z M410.1015625 75.45703125 C399.34933154 88.46763043 394.72992987 104.31020517 396 121 C397.54149366 128.02040253 400.34506791 134.38960951 406 139 C415.69957005 144.97854719 424.72517154 146.30299023 435.8125 143.9375 C450.45493346 139.90525627 461.94646571 129.99745918 469.5 117 C475.00643911 106.93481753 478.58989594 95.06463578 475.3203125 83.62109375 C473.60857666 79.58628784 472.1133065 78.46315324 468.4375 76.25 C467.06464844 75.41855469 467.06464844 75.41855469 465.6640625 74.5703125 C463.57109784 73.33662952 461.47642924 72.22178605 459.3125 71.125 C455.03472464 68.38076675 452.15046174 64.94525908 449 61 C434.69874577 56.23291526 419.63292133 65.40363687 410.1015625 75.45703125 Z M1003.6875 76.75 C993.27217028 90.68690637 989.20253135 105.80534708 991 123 C992.68704651 130.39087043 997.73139862 137.1432571 1004.01953125 141.3515625 C1013.3499456 146.31113265 1022.99030546 145.73481937 1032.921875 143.02734375 C1048.32103147 137.88777757 1059.13265005 126.73469989 1066.27734375 112.4453125 C1068.55616098 107.49841388 1070.13692276 103.16918675 1070.09765625 97.671875 C1070.09443359 96.87265625 1070.09121094 96.0734375 1070.08789062 95.25 C1070.07951172 94.425 1070.07113281 93.6 1070.0625 92.75 C1070.05798828 91.90953125 1070.05347656 91.0690625 1070.04882812 90.203125 C1070.01886342 84.92933743 1069.95731365 83.92885608 1067 79 C1066.5153125 78.69707031 1066.030625 78.39414063 1065.53125 78.08203125 C1064.11528231 77.19705144 1062.70137344 76.30877264 1061.2890625 75.41796875 C1059.84062067 74.52072577 1058.37828173 73.64522768 1056.8984375 72.80078125 C1051.91285617 69.90375426 1048.48740909 66.58382937 1045 62 C1030.30174586 54.65087293 1013.07889752 65.68664913 1003.6875 76.75 Z M1092.65234375 74.87109375 C1082.64857048 87.76011605 1076.24080951 102.67516316 1078.2734375 119.2265625 C1079.84958556 127.8805075 1083.96952845 133.84432087 1091 139 C1096.62938018 141.81469009 1104.96196828 140.26626183 1110.75 138.5 C1112.17251255 138.01688253 1113.59181005 137.52339804 1115 137 C1112.32212974 143.69467565 1107.64207401 145.89669546 1101.10144043 148.86022949 C1096.07328942 150.98468481 1090.97322274 152.92645313 1085.875 154.875 C1084.33040336 155.47311764 1082.78612972 156.07207011 1081.2421875 156.671875 C1077.49844123 158.12422264 1073.75052181 159.56524519 1070 161 C1069.01524786 162.09918816 1068.03739527 163.2045602 1067.0625 164.3125 C1066.24458984 165.23482422 1066.24458984 165.23482422 1065.41015625 166.17578125 C1062.49994742 169.94051123 1062.89551206 173.61081461 1062.9375 178.1875 C1062.94652344 179.45980469 1062.95554687 180.73210937 1062.96484375 182.04296875 C1063.02084909 186.75363979 1065.3078133 191.26241317 1068.6015625 194.64453125 C1073.59941806 198.75414234 1079.03686721 200.15852531 1085.5390625 199.8984375 C1096.7627273 198.08127272 1106.18873199 190.89454606 1113 182 C1116.46948166 176.87201177 1119.62403156 171.54963366 1122.80859375 166.2421875 C1125.56468577 161.66337117 1128.46207389 157.22734059 1131.5625 152.875 C1132.32691406 151.79992187 1133.09132813 150.72484375 1133.87890625 149.6171875 C1135.78112294 147.27006931 1137.49064166 145.65014494 1140 144 C1140 143.34 1140 142.68 1140 142 C1140.87156738 141.61062256 1140.87156738 141.61062256 1141.76074219 141.21337891 C1144.16423679 139.91100558 1145.84954777 138.46742803 1147.828125 136.5859375 C1148.54613281 135.90660156 1149.26414062 135.22726563 1150.00390625 134.52734375 C1150.74511719 133.81707031 1151.48632812 133.10679687 1152.25 132.375 C1153.33861328 131.34439453 1153.33861328 131.34439453 1154.44921875 130.29296875 C1156.64457476 128.20718488 1158.82456678 126.10654246 1161 124 C1161.72324463 123.30592041 1162.44648926 122.61184082 1163.19165039 121.89672852 C1166.95333679 118.2282243 1170.19006789 114.70621775 1172.9375 110.1875 C1173.50339844 109.27355469 1174.06929687 108.35960937 1174.65234375 107.41796875 C1177.03082614 103.15048876 1177.09092967 99.8192726 1177 95 C1176.34 94.34 1175.68 93.68 1175 93 C1166.91304056 94.15527992 1165.83739389 95.9556715 1161 102 C1158.86937221 105.26295709 1156.90230589 108.59954113 1155 112 C1153.02 112.66 1151.04 113.32 1149 114 C1149.2165625 113.11441406 1149.433125 112.22882813 1149.65625 111.31640625 C1152.54310575 98.47257118 1155.04361063 83.90926271 1148 72 C1144.06684382 66.04407778 1138.40737112 62.07151683 1131.4453125 60.37890625 C1117.23252549 58.17660539 1102.30980711 64.31635995 1092.65234375 74.87109375 Z M588 169 C584.73320655 173.74211953 582.85366174 176.90265996 582.9375 182.6875 C582.94652344 183.49574219 582.95554687 184.30398437 582.96484375 185.13671875 C583.11943174 193.32988216 591.5872986 203.36789257 596 210 C596 211.65 596 213.3 596 215 C595.505 215.495 595.505 215.495 595 216 C590.71 215.67 586.42 215.34 582 215 C582 219.62 582 224.24 582 229 C588.12824865 232.06412432 593.46284939 233.36353735 600.22265625 231.33203125 C605.58846992 228.9851764 608.89994288 225.40964893 611.3125 220.125 C612.81580395 215.47842416 611.85674922 209.92349346 609.90234375 205.53564453 C608.50877516 203.15297972 607.04000358 200.85310986 605.5 198.5625 C604.48736684 197.00273885 603.47685312 195.44159908 602.46875 193.87890625 C602.01951172 193.2041626 601.57027344 192.52941895 601.10742188 191.83422852 C598.74083503 187.91443862 598.91572905 184.46636028 599 180 C606.42857143 179.85714286 606.42857143 179.85714286 610 181 C611.71610396 178.02050148 611.71610396 178.02050148 610 170 C606.07210057 165.83274158 606.07210057 165.83274158 600.95703125 164.90234375 C600.24933594 164.91394531 599.54164063 164.92554688 598.8125 164.9375 C594.20824119 164.70672776 594.20824119 164.70672776 588 169 Z M670 167 C661.55014612 175.25781174 659.482501 185.84910261 658.96875 197.3828125 C659.0609027 208.04948793 659.9123307 219.55335266 667.58984375 227.68359375 C673.22688165 232.54881228 674.69294256 232 683 232 C688.07407972 228.68317964 688.07407972 228.68317964 689 225 C689.06740865 223.43881572 689.08514456 221.8749748 689.0625 220.3125 C689.0315625 218.1778125 689.0315625 218.1778125 689 216 C685.7 215.67 682.4 215.34 679 215 C675.06849445 205.66267432 674.27574894 195.2813139 677.5 185.5625 C677.995 184.386875 678.49 183.21125 679 182 C682.53684659 181.19157792 685.27840527 181 689 181 C690.066974 170.97866052 690.066974 170.97866052 684 165 C678.25579159 163.42117124 678.25579159 163.42117124 670 167 Z M749.6875 169.1875 C742.04469118 177.1857883 740.6131015 187.68459267 740.6875 198.375 C740.69168945 199.20281982 740.69587891 200.03063965 740.70019531 200.88354492 C740.86399262 209.78871637 742.13641611 217.96369933 748 225 C754.64266165 231.35385028 759.9090022 232.23636529 768.8046875 232.0703125 C771.7900353 232.12792227 771.7900353 232.12792227 777 229 C778.65825838 225.68348324 778.38979376 221.96557392 778.5625 218.3125 C778.6049585 217.46776123 778.64741699 216.62302246 778.69116211 215.75268555 C779.04582331 208.16350666 779.10219047 200.59615854 779 193 C778.67 192.67 778.34 192.34 778 192 C772.72 192 767.44 192 762 192 C760.25464401 195.11803399 760.25464401 195.11803399 761 204 C761.99 204.66 762.98 205.32 764 206 C764.33 209.3 764.66 212.6 765 216 C763.02 215.34 761.04 214.68 759 214 C756.8682644 208.75983719 756.66575102 204.12588967 756.6875 198.5625 C756.67138672 197.74201172 756.65527344 196.92152344 756.63867188 196.07617188 C756.63432105 190.6245864 757.52035501 186.861151 760 182 C765.07583091 179.46208454 767.89472347 180.64912058 773.375 181.5625 C774.674375 181.7790625 774.674375 181.7790625 776 182 C776.18527794 173.08984902 776.18527794 173.08984902 772 167 C764.52233258 162.01488838 756.67190902 164.57515442 749.6875 169.1875 Z M853.8203125 170.08203125 C846.55251474 177.73973233 846.76661706 188.20451477 846.6875 198.0625 C846.65849609 199.24005859 846.62949219 200.41761719 846.59960938 201.63085938 C846.53434181 210.70305145 848.08220949 218.10228022 852.75 225.9375 C859.36682633 232.00292414 864.76646484 232 874 232 C880.42589367 229.31009102 883.69519695 225.65620621 886.75 219.4375 C889.30637868 212.40745862 889.21686625 205.72203459 889.25 198.3125 C889.270625 197.17876953 889.29125 196.04503906 889.3125 194.87695312 C889.35274134 186.14961196 888.88724311 177.14872773 882.5625 170.5 C881.98628906 169.8709375 881.41007813 169.241875 880.81640625 168.59375 C872.5523592 161.34271517 861.57116754 163.47654548 853.8203125 170.08203125 Z M472 166 C465.93616942 172.06383058 468.63749252 193.15222518 468.37744141 201.25732422 C468.08332067 210.18673688 467.65948124 219.08998749 467 228 C467.99 228.99 468.98 229.98 470 231 C477.13449589 231.36804081 477.13449589 231.36804081 483 229 C483 223.72 483 218.44 483 213 C483.66 213 484.32 213 485 213 C485.10957031 213.80824219 485.21914063 214.61648437 485.33203125 215.44921875 C485.49058594 216.51785156 485.64914062 217.58648437 485.8125 218.6875 C485.96332031 219.74324219 486.11414063 220.79898438 486.26953125 221.88671875 C487.02391759 225.10193753 488.15874987 227.28100323 490 230 C494.64734653 225.85368974 494.64734653 225.85368974 497 212 C497.33 217.94 497.66 223.88 498 230 C502.95 230 507.9 230 513 230 C514.07737937 226.76786188 513.96121916 225.15412058 513.62890625 221.80078125 C513.07761076 215.4268143 512.73915473 209.05969161 512.46484375 202.66796875 C512.39966049 201.15397995 512.39966049 201.15397995 512.3331604 199.60940552 C512.19959745 196.46883864 512.06849213 193.32817505 511.9375 190.1875 C511.84590632 188.03059032 511.75411107 185.87368919 511.66210938 183.71679688 C511.43908232 178.47796089 511.21854369 173.23902483 511 168 C510.34 167.34 509.68 166.68 509 166 C506.03 166 503.06 166 500 166 C493.23817938 172.76182062 493.13059739 184.88871513 492 194 C491.34 193.67 490.68 193.34 490 193 C489.83395264 192.32420898 489.66790527 191.64841797 489.49682617 190.95214844 C488.73673921 187.88227243 487.96229153 184.81619625 487.1875 181.75 C486.79594727 180.15478516 486.79594727 180.15478516 486.39648438 178.52734375 C486.00493164 176.99013672 486.00493164 176.99013672 485.60546875 175.421875 C485.36981201 174.47924805 485.13415527 173.53662109 484.89135742 172.56542969 C483.9667725 169.9043674 482.80555554 168.14285713 481 166 C478.03 166 475.06 166 472 166 Z M531 166 C527.65136968 169.34863032 529.85992537 182.76656022 529.83520508 187.44067383 C529.82017271 189.75582002 529.7997413 192.070938 529.77368164 194.38598633 C529.73705404 197.72484324 529.72021759 201.0633217 529.70703125 204.40234375 C529.69154739 205.42770737 529.67606354 206.45307098 529.66011047 207.50950623 C529.65861501 213.97952859 530.63288848 218.96891655 533 225 C540.4673677 231.40178356 540.4673677 231.40178356 549.25 232.0625 C550.14203125 232.05347656 551.0340625 232.04445313 551.953125 232.03515625 C555.04727025 232.14620512 555.04727025 232.14620512 561 228 C566.38779752 219.37952397 566.15252795 215.04570518 566.42724609 205.55297852 C566.47486034 203.92306951 566.52332918 202.29318519 566.57275391 200.66333008 C566.91237671 189.43845001 567.064752 178.22997522 567 167 C566.505 166.505 566.505 166.505 566 166 C561.71 166 557.42 166 553 166 C540.96994504 178.03005496 551.34019331 199.99033472 551 217 C549.35 217 547.7 217 546 217 C545.67 200.5 545.34 184 545 167 C540.81537205 164.90768602 535.67855628 166 531 166 Z M629 166 C628.67 166.33 628.34 166.66 628 167 C628 187.79 628 208.58 628 230 C632.47213595 232.23606798 638.01472757 230.38348249 643 230 C643.495 229.505 643.495 229.505 644 229 C644 208.54 644 188.08 644 167 C643.67 166.67 643.34 166.34 643 166 C638.38 166 633.76 166 629 166 Z M794 167 C793.92145774 180.88234509 794.16797981 194.74700173 794.5 208.625 C794.54836664 210.71093311 794.59654479 212.79687061 794.64453125 214.8828125 C794.76085588 219.92192795 794.87970334 224.96097788 795 230 C799.62 230 804.24 230 809 230 C814.20683312 224.79316688 810.6497505 215.35523946 811 208 C813 210 813 210 814.0234375 213.61328125 C814.47368467 215.17976618 814.92422058 216.74616815 815.375 218.3125 C815.59671875 219.09818359 815.8184375 219.88386719 816.046875 220.69335938 C816.26601563 221.45068359 816.48515625 222.20800781 816.7109375 222.98828125 C816.90993652 223.68477783 817.10893555 224.38127441 817.31396484 225.09887695 C818.01712196 227.2849698 818.01712196 227.2849698 820 230 C824.29 230 828.58 230 833 230 C834.29872871 227.15940308 834.29872871 227.15940308 833.24975586 225.03149414 C832.12581033 222.048889 831.03159011 219.05617894 829.9375 216.0625 C829.54755859 215.04091797 829.15761719 214.01933594 828.75585938 212.96679688 C825.88785658 205.02268295 825.13246676 199.25797578 828.5625 191.4375 C831.5589424 184.27209425 829.98792645 179.08164425 827.16796875 172.19921875 C825.31533977 168.71082372 823.73117627 167.24372542 820 166 C818.08093083 165.91733514 816.15910526 165.89259337 814.23828125 165.90234375 C812.56088867 165.90717773 812.56088867 165.90717773 810.84960938 165.91210938 C809.68236328 165.92048828 808.51511719 165.92886719 807.3125 165.9375 C806.13365234 165.94201172 804.95480469 165.94652344 803.74023438 165.95117188 C798.50721943 165.44569819 798.50721943 165.44569819 794 167 Z M906 166 C905.67 166.33 905.34 166.66 905 167 C902.59230471 197.54051571 902.59230471 197.54051571 909 226 C913.69254861 230.50101602 916.75257314 232.14607048 923.1875 232.0625 C924.08855469 232.05347656 924.98960937 232.04445313 925.91796875 232.03515625 C929.18008438 232.13003966 929.18008438 232.13003966 936 228 C939.38333833 223.08870242 941.10434617 219.84357578 941.20532227 213.88598633 C941.22526749 212.84513382 941.24521271 211.80428131 941.26576233 210.73188782 C941.28247482 209.60993515 941.29918732 208.48798248 941.31640625 207.33203125 C941.33718735 206.18208176 941.35796844 205.03213226 941.37937927 203.84733582 C941.44483342 200.16911875 941.50374074 196.49082952 941.5625 192.8125 C941.60568913 190.32095604 941.64930355 187.82941941 941.69335938 185.33789062 C941.80051061 179.22533699 941.90228483 173.11271136 942 167 C937.81537205 164.90768602 932.67855628 166 928 166 C927.34 166.66 926.68 167.32 926 168 C926 183.51 926 199.02 926 215 C923 217 923 217 921 217 C920.67 200.5 920.34 184 920 167 C915.81537205 164.90768602 910.67855628 166 906 166 Z M958 166 C958 187.12 958 208.24 958 230 C962.95 230 967.9 230 973 230 C973.33 223.07 973.66 216.14 974 209 C976.97 207.68 979.94 206.36 983 205 C986.68498461 202.89429451 988.18703194 201.74364446 990.4375 198.25 C991.11619141 197.20585937 991.11619141 197.20585937 991.80859375 196.140625 C994.43358605 191.42424539 994.64590807 186.28470239 994 181 C992.4175598 176.42543487 990.88420679 172.78372875 987.25 169.5625 C986.73953125 169.11003906 986.2290625 168.65757812 985.703125 168.19140625 C978.53050147 163.17385997 963.36331109 166 958 166 Z " fill="#000000" transform="translate(14,5)"/>
<path d="M0 0 C17.68983957 0 17.68983957 0 23.57421875 5.4609375 C29.3676789 12.31566212 30.25125516 18.80237271 29.89453125 27.6015625 C28.48625797 38.56952619 22.28479534 51.54755559 14 59 C13.28328125 59.65097656 12.5665625 60.30195312 11.828125 60.97265625 C0.1369087 70.93253001 -11.7644565 75.57252564 -27 75 C-32.33416684 61.66458289 -17.53474952 32.76475295 -12.15039062 19.86572266 C-9.044608 12.72270445 -5.56480766 5.56480766 0 0 Z " fill="#000000" transform="translate(951,51)"/>
<path d="M0 0 C-3.3279809 2.71146645 -6.72986435 5.23266856 -10.25 7.6875 C-14.07215829 10.42271608 -17.26803462 13.22360341 -20.4375 16.6875 C-30.13974474 26.57764033 -41.94873789 26.84048457 -55 27 C-72.95775138 36.37634845 -72.95775138 36.37634845 -85 52 C-85.74482384 53.48177983 -86.49490521 54.96092766 -87.25 56.4375 C-88.11625 58.2009375 -88.11625 58.2009375 -89 60 C-91.24923704 61.2930106 -93.49935185 62.58444977 -95.75 63.875 C-96.70132813 64.42220703 -96.70132813 64.42220703 -97.671875 64.98046875 C-100.74250368 66.7396831 -103.80851875 68.46873374 -107 70 C-107.33 71.65 -107.66 73.3 -108 75 C-103.71 74.67 -99.42 74.34 -95 74 C-97.95717672 76.36574137 -100.80435418 78.58398427 -103.875 80.75 C-107.58885119 83.50906147 -110.50795794 86.61647191 -113.45703125 90.16796875 C-114.89529358 91.8756777 -116.39830579 93.44640471 -118 95 C-118.495 96.485 -118.495 96.485 -119 98 C-114.65535464 97.39174965 -110.32448133 96.73832608 -106 96 C-105.67 96.99 -105.34 97.98 -105 99 C-107.54615905 101.62104608 -110.02227366 104.01791577 -112.875 106.3125 C-116.02896027 108.88567987 -118.56810563 111.85782777 -121.20703125 114.9453125 C-124.64518244 118.8853289 -128.218868 122.68276411 -132.4296875 125.796875 C-135.41712807 128.35753834 -137.43205743 131.19817447 -139.5 134.5 C-139.8930835 135.11584961 -140.28616699 135.73169922 -140.69116211 136.36621094 C-143.07732681 140.2073782 -144.94344146 144.01300611 -146.5625 148.25 C-148.59132878 153.54320727 -151.39445505 157.25186422 -155.0625 161.53125 C-158.06031966 165.35105247 -160.04271406 169.57728658 -162 174 C-178.30070218 154.42924814 -179.34470325 122.9525266 -178 99 C-175.53884138 74.14781974 -165.05763678 50.98163741 -149 32 C-148.18144531 31.00613281 -147.36289063 30.01226562 -146.51953125 28.98828125 C-126.51850062 5.84034111 -96.58275099 -9.26079132 -66.0625 -11.8359375 C-43.96297783 -13.01984047 -19.62111872 -11.2717065 0 0 Z " fill="#000000" transform="translate(244,66)"/>
<path d="M0 0 C1.8871875 0.0309375 1.8871875 0.0309375 3.8125 0.0625 C8.97172086 7.80133129 5.37564223 22.92149482 4.8125 32.0625 C0.93369582 38.88463205 -3.74099951 42.58033317 -11.1875 45.0625 C-17.86367823 45.38041325 -17.96140625 45.21322916 -24.1875 41.0625 C-27.37570427 34.48682868 -26.48703496 28.47462545 -24.28515625 21.74609375 C-20.65592456 12.87320345 -15.37368794 6.10747629 -7.1875 1.0625 C-4.43671116 0.14557039 -2.82801087 -0.04636083 0 0 Z " fill="#000000" transform="translate(460.1875,81.9375)"/>
<path d="M0 0 C3 5 3 5 1 34 C-4.38542595 40.28299694 -7.89339318 44.31776004 -16.1328125 45.23828125 C-20.39628437 45.26417278 -22.45161517 44.31057617 -26 42 C-29.82173027 37.16689849 -29.46218661 33.09934785 -29 27 C-26.58850418 16.28711249 -20.60499393 8.43559563 -11.796875 2.09375 C-7.90231788 -0.27684999 -4.44247872 -0.08382035 0 0 Z " fill="#000000" transform="translate(1058,82)"/>
<path d="M0 0 C1.485 0.99 1.485 0.99 3 2 C3.85266635 14.78999523 -1.36541926 26.42490798 -9.25 36.3125 C-12.88518 40.33286463 -16.93124906 42.25294752 -22 44 C-24.31 43.67 -26.62 43.34 -29 43 C-32.33428897 37.99856654 -31.40579818 31.74000481 -30.54296875 25.9140625 C-28.30451615 15.72975769 -23.58007803 8.02648338 -15 2 C-10.34317682 -0.76892189 -5.25564551 -0.18369246 0 0 Z " fill="#000000" transform="translate(1146,82)"/>
<path d="M0 0 C2.97 0 5.94 0 9 0 C9 1.32 9 2.64 9 4 C5 6 5 6 0 6 C-0.33 4.35 -0.66 2.7 -1 1 C-0.67 0.67 -0.34 0.34 0 0 Z " fill="#000000" transform="translate(1100,176)"/>
<path d="M0 0 C0.99 0.33 1.98 0.66 3 1 C3 4.96 3 8.92 3 13 C1.68 13 0.36 13 -1 13 C-1 1 -1 1 0 0 Z " fill="#000000" transform="translate(825,184)"/>
<path d="M0 0 C5 1 5 1 8 5 C8 33 8 33 5 38 C3.515 38.495 3.515 38.495 2 39 C-3 36 -3 36 -3.48950195 34.35522461 C-4.53705982 29.52223046 -4.18470653 24.48738665 -4.1875 19.5625 C-4.19974609 18.43005859 -4.21199219 17.29761719 -4.22460938 16.13085938 C-4.22654297 15.03708984 -4.22847656 13.94332031 -4.23046875 12.81640625 C-4.23457764 11.82068604 -4.23868652 10.82496582 -4.24291992 9.79907227 C-3.88656635 5.69294799 -2.92389121 2.92389121 0 0 Z " fill="#000000" transform="translate(880,184)"/>
<path d="M0 0 C1.98 0.495 1.98 0.495 4 1 C5.28317892 4.84953676 5.06643637 7.94738135 5 12 C4.34 12.66 3.68 13.32 3 14 C1.68 14 0.36 14 -1 14 C-1 1 -1 1 0 0 Z " fill="#000000" transform="translate(988,184)"/>
</svg>
