<svg width="200" height="107" viewBox="0 0 200 107" fill="none" xmlns="http://www.w3.org/2000/svg">
<path d="M7.93796 0.377976C9.23396 0.377976 10.152 0.917975 10.476 1.99798V1.45798C10.476 0.755978 10.854 0.377976 11.556 0.377976H14.796V0.917975C10.962 0.917975 10.638 4.04998 10.638 5.83198V32.724C10.638 34.506 10.962 37.098 14.796 37.098H20.682C25.002 37.098 28.89 30.132 29.862 27.216H30.24L28.404 38.178H-3.90243e-05V37.638C3.83396 37.638 4.15796 34.506 4.15796 32.724V5.83198C4.15796 4.04998 3.83396 0.917975 -3.90243e-05 0.917975V0.377976H7.93796ZM38.6015 23.976V24.732C38.6015 27 38.8175 29.16 39.2495 30.996C39.7355 25.056 46.3775 22.572 50.6975 22.14C50.2115 16.2 48.9695 11.772 44.9195 11.772C40.2215 11.772 38.6015 17.118 38.6015 23.976ZM52.1555 23.112C47.4575 23.112 38.4935 25.92 40.7615 34.56C42.0575 36.504 43.9475 37.638 46.6475 37.638C51.2915 37.638 54.5315 34.236 55.7735 29.43H56.9615C55.3415 34.83 52.3175 38.718 45.5135 38.718C36.8735 38.718 31.8515 32.454 31.8515 24.732V23.976C31.8515 16.524 36.6035 10.692 44.9195 10.692C52.5335 10.692 57.3935 16.092 57.3935 23.112H52.1555ZM78.4624 38.178H67.6084V37.638C70.7944 37.638 70.4164 35.424 69.9844 33.696L64.3684 16.632C63.8284 14.85 62.3164 11.718 58.4824 11.718V11.178H67.5544C69.2824 11.178 69.7144 12.258 70.2544 13.878L77.8684 36.45L84.0784 16.632C84.5104 14.958 85.5364 11.718 81.7024 11.718V11.178H90.8284V11.718C86.9944 11.718 85.8064 14.796 85.2124 16.632L78.4624 38.178ZM99.854 11.124C101.582 11.124 102.554 12.096 102.554 13.824V32.724C102.554 34.506 102.878 37.638 106.712 37.638V38.178H91.916V37.638C95.75 37.638 96.074 34.506 96.074 32.724V16.578C96.074 14.796 95.75 11.664 91.916 11.664V11.124H99.854ZM98.882 8.36998C97.1 8.36998 95.642 6.91198 95.642 5.12998C95.642 3.34798 97.1 1.88998 98.882 1.88998C100.664 1.88998 102.122 3.34798 102.122 5.12998C102.122 6.91198 100.664 8.36998 98.882 8.36998ZM136.096 1.07998C131.128 1.07998 128.05 5.07598 133.45 13.446L135.502 16.632C142.684 14.958 144.412 1.07998 136.096 1.07998ZM129.184 18.144C121.408 6.42598 127.78 -2.24113e-05 136.096 -2.24113e-05C146.842 -2.24113e-05 143.17 16.362 136.15 17.658L144.196 30.24C146.41 25.38 147.814 20.574 151.324 20.574V26.622C148.3 26.622 147.22 27.756 145.006 31.482L149.326 38.232H142.468L141.118 36.18C118.276 47.466 110.23 19.818 129.238 18.198L129.184 18.144ZM129.94 19.278C118.438 20.574 124.918 42.714 140.524 35.262L129.94 19.278ZM10.854 55.378L24.408 83.674L36.882 55.378H40.878C42.174 55.378 43.092 55.918 43.416 56.998V56.458C43.416 55.756 43.794 55.378 44.496 55.378H47.736V55.918C43.902 55.918 43.578 59.05 43.578 60.832V87.724C43.578 89.506 43.902 92.638 47.736 92.638V93.178H32.94V92.638C36.774 92.638 37.098 89.506 37.098 87.724V57.592L24.57 85.942H18.306L5.23796 58.564V87.724C5.23796 89.506 5.56196 92.638 9.39596 92.638V93.178H-3.90243e-05V92.638C3.83396 92.638 4.15796 89.506 4.15796 87.724V60.832C4.15796 59.05 3.83396 55.918 -3.90243e-05 55.918V55.378H10.854ZM54.5273 78.976V79.732C54.5273 82 54.7433 84.16 55.1753 85.996C55.6613 80.056 62.3033 77.572 66.6233 77.14C66.1373 71.2 64.8953 66.772 60.8453 66.772C56.1473 66.772 54.5273 72.118 54.5273 78.976ZM68.0813 78.112C63.3833 78.112 54.4193 80.92 56.6873 89.56C57.9833 91.504 59.8733 92.638 62.5733 92.638C67.2173 92.638 70.4573 89.236 71.6993 84.43H72.8873C71.2673 89.83 68.2433 93.718 61.4393 93.718C52.7993 93.718 47.7773 87.454 47.7773 79.732V78.976C47.7773 71.524 52.5293 65.692 60.8453 65.692C68.4593 65.692 73.3193 71.092 73.3193 78.112H68.0813ZM95.1442 63.91C94.5502 62.83 94.6582 61.75 96.2782 61.75H100.598V62.452C96.7642 62.452 97.2502 66.826 98.4382 68.608C101.192 70.93 102.704 74.386 102.704 78.328C102.704 84.754 98.2762 87.238 91.4182 90.208C83.4262 93.664 75.1642 96.472 77.7562 97.984C80.2402 99.442 87.0982 94.744 92.8222 92.098C98.5462 89.452 104.864 89.722 104.864 95.014C104.864 101.008 98.7082 105.274 94.4962 106.03L91.6342 101.764H91.9042C95.7922 105.814 102.002 102.952 102.002 97.66C102.002 93.934 97.5742 94.798 92.2822 98.092C86.9902 101.386 79.7002 104.518 75.9742 101.494C70.3042 96.904 81.2662 93.07 91.4182 89.128C95.1442 87.67 96.2242 83.944 96.2242 78.328C96.2242 71.848 94.3342 66.718 89.6362 66.718C84.9382 66.718 82.9942 71.848 82.9942 78.328C82.9942 83.674 84.1822 87.832 87.2062 89.29L84.1822 90.586C80.7262 89.236 76.5682 85.672 76.5682 78.328C76.5682 71.308 81.3742 65.692 89.6362 65.692C92.7142 65.692 95.3062 66.448 97.3582 67.798L95.1442 63.91ZM113.881 55.324C115.609 55.324 116.581 56.296 116.581 58.024V73.036C120.469 62.236 133.591 63.208 134.185 74.71V87.724C134.185 89.506 134.509 92.638 138.343 92.638V93.178H123.547V92.638C127.381 92.638 127.705 89.506 127.705 87.724V75.52C127.705 66.772 116.581 64.882 116.581 79.786V87.724C116.581 89.506 116.905 92.638 120.739 92.638V93.178H105.943V92.638C109.777 92.638 110.101 89.506 110.101 87.724V60.778C110.101 58.996 109.777 55.864 105.943 55.864V55.324H113.881ZM175.34 66.178C177.068 66.178 178.04 67.15 178.04 68.878V70.12L178.688 69.526C184.682 63.154 195.104 64.126 195.644 74.71V87.724C195.644 89.506 195.968 92.638 199.802 92.638V93.178H185.006V92.638C188.84 92.638 189.164 89.506 189.164 87.724V75.52C189.164 69.364 183.224 66.718 179.444 70.282L155.09 91.18C150.716 95.392 139.43 94.744 139.43 87.724C139.43 77.572 155.198 83.728 155.198 70.282C154.712 68.392 153.686 66.934 151.634 66.934C147.8 66.934 144.128 71.578 142.184 77.086H141.806L143.264 66.124H144.182C145.154 66.988 146.99 67.798 148.772 67.042C150.068 66.232 151.364 65.8 153.47 65.8C160.868 65.8 162.056 70.768 162.164 74.71V79.678C162.164 81.676 163.622 82.432 165.188 81.082L168.104 78.598L168.158 78.544L168.428 78.328C170.048 76.816 171.506 73.684 171.56 71.416C171.506 69.58 171.074 66.718 167.402 66.718V66.178H175.34ZM167.402 93.178V92.638C171.236 92.638 171.56 89.506 171.56 87.724V78.274L178.04 72.712V87.724C178.04 89.506 178.364 92.638 182.198 92.638V93.178H167.402ZM158.384 93.178C157.034 93.178 156.116 92.854 155.792 91.72L162.164 86.266V87.724C162.164 89.506 162.488 92.638 166.322 92.638V93.178H158.384ZM145.91 87.724C145.964 93.826 152.12 92.584 155.09 89.722L155.684 89.236V75.358V74.71C153.47 81.568 145.856 78.976 145.91 87.724Z" fill="#C86A4A"/>
</svg>
