<svg width="767" height="108" viewBox="0 0 767 108" fill="none" xmlns="http://www.w3.org/2000/svg">
<path d="M16.758 0.797997C19.494 0.797997 21.432 1.938 22.116 4.218V3.078C22.116 1.596 22.914 0.797997 24.396 0.797997H31.236V1.938C23.142 1.938 22.458 8.55 22.458 12.312V69.084C22.458 72.846 23.142 78.318 31.236 78.318H43.662C52.782 78.318 60.99 63.612 63.042 57.456H63.84L59.964 80.598H0V79.458C8.094 79.458 8.778 72.846 8.778 69.084V12.312C8.778 8.55 8.094 1.938 0 1.938V0.797997H16.758Z" fill="#C86A4A"/>
<path d="M81.4922 50.616V52.212C81.4922 57 81.9482 61.56 82.8602 65.436C83.8862 52.896 97.9082 47.652 107.028 46.74C106.002 34.2 103.38 24.852 94.8302 24.852C84.9122 24.852 81.4922 36.138 81.4922 50.616ZM110.106 48.792C100.188 48.792 81.2642 54.72 86.0522 72.96C88.7882 77.064 92.7782 79.458 98.4782 79.458C108.282 79.458 115.122 72.276 117.744 62.13H120.252C116.832 73.53 110.448 81.738 96.0842 81.738C77.8442 81.738 67.2422 68.514 67.2422 52.212V50.616C67.2422 34.884 77.2742 22.572 94.8302 22.572C110.904 22.572 121.164 33.972 121.164 48.792H110.106Z" fill="#C86A4A"/>
<path d="M165.643 80.598H142.729V79.458C149.455 79.458 148.657 74.784 147.745 71.136L135.889 35.112C134.749 31.35 131.557 24.738 123.463 24.738V23.598H142.615C146.263 23.598 147.175 25.878 148.315 29.298L164.389 76.95L177.499 35.112C178.411 31.578 180.577 24.738 172.483 24.738V23.598H191.749V24.738C183.655 24.738 181.147 31.236 179.893 35.112L165.643 80.598Z" fill="#C86A4A"/>
<path d="M210.803 23.484C214.451 23.484 216.503 25.536 216.503 29.184V69.084C216.503 72.846 217.187 79.458 225.281 79.458V80.598H194.045V79.458C202.139 79.458 202.823 72.846 202.823 69.084V34.998C202.823 31.236 202.139 24.624 194.045 24.624V23.484H210.803ZM208.751 17.67C204.989 17.67 201.911 14.592 201.911 10.83C201.911 7.068 204.989 3.99 208.751 3.99C212.513 3.99 215.591 7.068 215.591 10.83C215.591 14.592 212.513 17.67 208.751 17.67Z" fill="#C86A4A"/>
<path d="M287.313 2.28C276.825 2.28 270.327 10.716 281.727 28.386L286.059 35.112C301.221 31.578 304.869 2.28 287.313 2.28ZM272.721 38.304C256.305 13.566 269.757 0 287.313 0C309.999 0 302.247 34.542 287.427 37.278L304.413 63.84C309.087 53.58 312.051 43.434 319.461 43.434V56.202C313.077 56.202 310.797 58.596 306.123 66.462L315.243 80.712H300.765L297.915 76.38C249.693 100.206 232.707 41.838 272.835 38.418L272.721 38.304ZM274.317 40.698C250.035 43.434 263.715 90.174 296.661 74.442L274.317 40.698Z" fill="#C86A4A"/>
<path d="M367.475 0.797997L396.089 60.534L422.423 0.797997H430.859C433.595 0.797997 435.533 1.938 436.217 4.218V3.078C436.217 1.596 437.015 0.797997 438.497 0.797997H445.337V1.938C437.243 1.938 436.559 8.55 436.559 12.312V69.084C436.559 72.846 437.243 79.458 445.337 79.458V80.598H414.101V79.458C422.195 79.458 422.879 72.846 422.879 69.084V5.472L396.431 65.322H383.207L355.619 7.524V69.084C355.619 72.846 356.303 79.458 364.397 79.458V80.598H344.561V79.458C352.655 79.458 353.339 72.846 353.339 69.084V12.312C353.339 8.55 352.655 1.938 344.561 1.938V0.797997H367.475Z" fill="#C86A4A"/>
<path d="M459.674 50.616V52.212C459.674 57 460.13 61.56 461.042 65.436C462.068 52.896 476.09 47.652 485.21 46.74C484.184 34.2 481.562 24.852 473.012 24.852C463.094 24.852 459.674 36.138 459.674 50.616ZM488.288 48.792C478.37 48.792 459.446 54.72 464.234 72.96C466.97 77.064 470.96 79.458 476.66 79.458C486.464 79.458 493.304 72.276 495.926 62.13H498.434C495.014 73.53 488.63 81.738 474.266 81.738C456.026 81.738 445.424 68.514 445.424 52.212V50.616C445.424 34.884 455.456 22.572 473.012 22.572C489.086 22.572 499.346 33.972 499.346 48.792H488.288Z" fill="#C86A4A"/>
<path d="M545.421 18.81C544.167 16.53 544.395 14.25 547.815 14.25H556.935V15.732C548.841 15.732 549.867 24.966 552.375 28.728C558.189 33.63 561.381 40.926 561.381 49.248C561.381 62.814 552.033 68.058 537.555 74.328C520.683 81.624 503.241 87.552 508.713 90.744C513.957 93.822 528.435 83.904 540.519 78.318C552.603 72.732 565.941 73.302 565.941 84.474C565.941 97.128 552.945 106.134 544.053 107.73L538.011 98.724H538.581C546.789 107.274 559.899 101.232 559.899 90.06C559.899 82.194 550.551 84.018 539.379 90.972C528.207 97.926 512.817 104.538 504.951 98.154C492.981 88.464 516.123 80.37 537.555 72.048C545.421 68.97 547.701 61.104 547.701 49.248C547.701 35.568 543.711 24.738 533.793 24.738C523.875 24.738 519.771 35.568 519.771 49.248C519.771 60.534 522.279 69.312 528.663 72.39L522.279 75.126C514.983 72.276 506.205 64.752 506.205 49.248C506.205 34.428 516.351 22.572 533.793 22.572C540.291 22.572 545.763 24.168 550.095 27.018L545.421 18.81Z" fill="#C86A4A"/>
<path d="M584.977 0.683998C588.625 0.683998 590.677 2.736 590.677 6.384V38.076C598.885 15.276 626.587 17.328 627.841 41.61V69.084C627.841 72.846 628.525 79.458 636.619 79.458V80.598H605.383V79.458C613.477 79.458 614.161 72.846 614.161 69.084V43.32C614.161 24.852 590.677 20.862 590.677 52.326V69.084C590.677 72.846 591.361 79.458 599.455 79.458V80.598H568.219V79.458C576.313 79.458 576.997 72.846 576.997 69.084V12.198C576.997 8.436 576.313 1.824 568.219 1.824V0.683998H584.977Z" fill="#C86A4A"/>
<path d="M714.722 23.598C718.37 23.598 720.422 25.65 720.422 29.298V31.92L721.79 30.666C734.444 17.214 756.446 19.266 757.586 41.61V69.084C757.586 72.846 758.27 79.458 766.364 79.458V80.598H735.128V79.458C743.222 79.458 743.906 72.846 743.906 69.084V43.32C743.906 30.324 731.366 24.738 723.386 32.262L671.972 76.38C662.738 85.272 638.912 83.904 638.912 69.084C638.912 47.652 672.2 60.648 672.2 32.262C671.174 28.272 669.008 25.194 664.676 25.194C656.582 25.194 648.83 34.998 644.726 46.626H643.928L647.006 23.484H648.944C650.996 25.308 654.872 27.018 658.634 25.422C661.37 23.712 664.106 22.8 668.552 22.8C684.17 22.8 686.678 33.288 686.906 41.61V52.098C686.906 56.316 689.984 57.912 693.29 55.062L699.446 49.818L699.56 49.704L700.13 49.248C703.55 46.056 706.628 39.444 706.742 34.656C706.628 30.78 705.716 24.738 697.964 24.738V23.598H714.722ZM697.964 80.598V79.458C706.058 79.458 706.742 72.846 706.742 69.084V49.134L720.422 37.392V69.084C720.422 72.846 721.106 79.458 729.2 79.458V80.598H697.964ZM678.926 80.598C676.076 80.598 674.138 79.914 673.454 77.52L686.906 66.006V69.084C686.906 72.846 687.59 79.458 695.684 79.458V80.598H678.926ZM652.592 69.084C652.706 81.966 665.702 79.344 671.972 73.302L673.226 72.276V41.61C668.552 56.088 652.478 50.616 652.592 69.084Z" fill="#C86A4A"/>
</svg>
