<svg preserveAspectRatio="none" width="100%" height="100%" overflow="visible" style="display: block;" viewBox="0 0 32 84.945" fill="none" xmlns="http://www.w3.org/2000/svg">
<g id="Frame 17">
<rect width="32" height="84.945" fill="#FBF3E9"/>
<path id="palm-icon" d="M16.0713 39.4269C16.4139 39.4721 16.7661 39.4996 17.1265 39.5256L17.1265 45.4172C16.7565 45.4446 16.3961 45.4802 16.0439 45.5159C15.3943 44.5415 14.8255 43.5219 14.3843 42.4844C14.8433 41.4305 15.4217 40.4014 16.0713 39.4269ZM22.404 39.4543C20.924 39.5982 19.4454 39.6352 18.028 39.5804L18.028 45.3732C19.445 45.3102 20.9237 45.3458 22.404 45.4911L22.404 39.4543ZM23.3072 39.3543L23.3072 45.5897C24.7954 45.7706 26.2755 46.0584 27.6832 46.4736L27.6832 38.4706C26.2757 38.8858 24.7957 39.175 23.3072 39.3545L23.3072 39.3543ZM29.9197 37.7043C29.4867 37.8852 29.0358 38.0469 28.5849 38.2004L28.5849 46.7437C29.0358 46.8972 29.4867 47.0589 29.9197 47.2398C30.8132 47.6016 31.7876 46.978 31.7876 46.0133L31.7876 38.9306C31.7876 37.9658 30.8133 37.3422 29.9197 37.704L29.9197 37.7043ZM0.227773 48.7747C0.290812 49.7765 1.4365 50.3178 2.23134 49.6957C2.68221 49.3435 3.19612 48.9652 3.76485 48.5856C3.82789 48.2334 3.90874 47.8812 4.01701 47.5386C4.76527 45.1568 6.11924 43.4424 7.98695 42.4776C6.94954 41.9363 6.07381 41.1688 5.38861 40.1862C1.77096 41.4662 0.0290861 45.3101 0.227598 48.7746L0.227773 48.7747ZM9.02456 27.6442C5.93023 29.4751 3.66504 33.2739 4.883 37.1359C6.11913 41.069 8.81757 42.2338 11.2172 42.4683C8.81763 42.7122 6.11939 43.8757 4.883 47.8091C3.66469 51.6711 5.93 55.4683 9.02456 57.3008C9.88108 57.8065 10.9555 57.1295 10.8828 56.1277C10.8102 55.0629 10.802 53.7815 10.8828 52.4016C10.0894 51.012 9.69195 49.6045 9.69196 48.2147C9.69196 46.2207 10.5224 44.2895 12.1546 42.4669C10.5306 40.6539 9.70017 38.723 9.70017 36.7291C9.70017 35.3573 10.0976 33.9499 10.8815 32.5601C10.8006 31.1705 10.8088 29.8809 10.8815 28.8065C10.9555 27.8156 9.88105 27.1387 9.02453 27.6444L9.02456 27.6442ZM11.9299 52.4038C14.0856 55.8396 18.4448 56.5769 21.849 55.4063C22.7905 55.0829 22.9645 53.8331 22.1642 53.2424C19.3206 51.1415 15.2067 47.0382 13.392 42.4681L13.3906 42.4681C11.4734 44.3606 9.03126 47.7838 11.9297 52.4036L11.9299 52.4038ZM11.9395 32.5421C9.04511 37.1549 11.4763 40.5755 13.3908 42.4694C15.3025 37.8373 19.3824 33.7495 22.134 31.7252C22.9467 31.1264 22.7809 29.8519 21.8257 29.5284C18.4256 28.3731 14.0881 29.1173 11.9393 32.5421L11.9395 32.5421Z" fill="var(--fill-0, #C2A98B)"/>
</g>
</svg>
