<svg width="15" height="16" viewBox="0 0 15 16" fill="none" xmlns="http://www.w3.org/2000/svg">
<path d="M9.02279 8.03611C9.00018 8.20972 8.98647 8.38819 8.97345 8.57082H6.02765C6.01394 8.38333 5.99613 8.2007 5.97831 8.02222C6.4655 7.69306 6.9753 7.40487 7.49405 7.18126C8.02098 7.41389 8.53557 7.70694 9.02279 8.03611ZM9.00909 11.2451C8.93714 10.4951 8.91864 9.74585 8.94605 9.02764H6.04965C6.08117 9.74569 6.06335 10.495 5.99072 11.2451H9.00909ZM9.05911 11.7027H5.94139C5.85094 12.4569 5.70705 13.2068 5.49943 13.9202H9.50095C9.29333 13.207 9.14874 12.457 9.05899 11.7027H9.05911ZM9.88411 15.0535C9.79367 14.834 9.71281 14.6056 9.63606 14.3771H5.36441C5.28766 14.6056 5.20681 14.834 5.11636 15.0535C4.93546 15.5062 5.24723 16 5.72962 16H9.27096C9.75336 16 10.0651 15.5063 9.88423 15.0535H9.88411ZM4.34889 0.00781152C3.84799 0.0397547 3.57734 0.620305 3.88842 1.02307C4.06452 1.25154 4.25363 1.51195 4.44345 1.80014C4.61955 1.83208 4.79565 1.87305 4.96695 1.92791C6.15786 2.30708 7.01507 2.99317 7.49746 3.93958C7.76812 3.4139 8.15184 2.97015 8.64314 2.62294C8.00315 0.789784 6.0812 -0.0928683 4.34897 0.00772262L4.34889 0.00781152ZM14.9141 4.46537C13.9987 2.89739 12.0993 1.74956 10.1683 2.36673C8.20174 2.99311 7.61936 4.36048 7.50212 5.57646C7.38015 4.36051 6.7984 2.99324 4.83172 2.36673C2.90069 1.74938 1.00211 2.89727 0.0858555 4.46537C-0.166991 4.89939 0.171508 5.44382 0.6724 5.40701C1.20482 5.3702 1.84549 5.36604 2.53546 5.40701C3.23026 5.00493 3.93398 4.80355 4.62889 4.80355C5.62588 4.80355 6.5915 5.22438 7.50278 6.05144C8.40933 5.22854 9.37475 4.80772 10.3717 4.80772C11.0576 4.80772 11.7613 5.0091 12.4562 5.40631C13.151 5.36534 13.7958 5.36951 14.333 5.40631C14.8284 5.44381 15.1669 4.89937 14.9141 4.46535L14.9141 4.46537ZM2.53436 5.93756C0.81646 7.0299 0.447796 9.23884 1.0331 10.9638C1.1948 11.4409 1.81972 11.5291 2.11506 11.1236C3.16549 9.68261 5.21713 7.59799 7.50221 6.67845V6.67776C6.55593 5.70625 4.84438 4.46876 2.53445 5.93749L2.53436 5.93756ZM12.4652 5.94242C10.1588 4.47578 8.44849 5.7077 7.50154 6.67783C9.8176 7.64657 11.8615 9.71393 12.8736 11.1083C13.1731 11.5201 13.8103 11.4361 13.972 10.952C14.5497 9.22909 14.1776 7.03121 12.4652 5.94234L12.4652 5.94242Z" fill="#4F7A4A"/>
</svg>
