<?xml version="1.0" encoding="UTF-8"?>
<svg width="1200pt" height="1200pt" version="1.1" viewBox="0 0 1200 1200" xmlns="http://www.w3.org/2000/svg">
 <path d="m704.16 602.44c-1.5469 11.719-2.4844 23.766-3.375 36.094h-201.52c-0.9375-12.656-2.1562-24.984-3.375-37.031 33.328-22.219 68.203-41.672 103.69-56.766 36.047 15.703 71.25 35.484 104.58 57.703zm-0.9375 216.61c-4.9219-50.625-6.1875-101.2-4.3125-149.68h-198.14c2.1562 48.469 0.9375 99.047-4.0312 149.68zm3.4219 30.891h-213.28c-6.1875 50.906-16.031 101.53-30.234 149.68h273.74c-14.203-48.141-24.094-98.766-30.234-149.68zm56.438 226.18c-6.1875-14.812-11.719-30.234-16.969-45.656h-292.22c-5.25 15.422-10.781 30.844-16.969 45.656-12.375 30.562 8.9531 63.891 41.953 63.891h242.26c33 0 54.328-33.328 41.953-63.891zm-378.66-1015.6c-34.266 2.1562-52.781 41.344-31.5 68.531 12.047 15.422 24.984 33 37.969 52.453 12.047 2.1562 24.094 4.9219 35.812 8.625 81.469 25.594 140.11 71.906 173.11 135.79 18.516-35.484 44.766-65.438 78.375-88.875-43.781-123.74-175.26-183.32-293.76-176.53zm722.76 300.89c-62.625-105.84-192.56-183.32-324.66-141.66-134.53 42.281-174.37 134.58-182.39 216.66-8.3438-82.078-48.141-174.37-182.68-216.66-132.1-41.672-261.98 35.812-324.66 141.66-17.297 29.297 5.8594 66.047 40.125 63.562 36.422-2.4844 80.25-2.7656 127.45 0 47.531-27.141 95.672-40.734 143.21-40.734 68.203 0 134.26 28.406 196.6 84.234 62.016-55.547 128.06-83.953 196.26-83.953 46.922 0 95.062 13.594 142.6 40.406 47.531-2.7656 91.641-2.4844 128.39 0 33.891 2.5312 57.047-34.219 39.75-63.516zm-846.89 99.375c-117.52 73.734-142.74 222.84-102.7 339.28 11.062 32.203 53.812 38.156 74.016 10.781 71.859-97.266 212.21-237.98 368.53-300.05v-0.046875c-64.734-65.578-181.82-149.11-339.84-49.969zm679.36 0.32812c-157.78-99-274.78-15.844-339.56 49.641 158.44 65.391 298.26 204.94 367.5 299.06 20.484 27.797 64.078 22.125 75.141-10.547 39.516-116.3 14.062-264.66-103.08-338.16z"/>
</svg>
