<svg width="538" height="325" viewBox="0 0 538 325" fill="none" xmlns="http://www.w3.org/2000/svg">
<path d="M50.6959 138.516C72.4513 138.316 79.6365 124.345 79.6365 115.762C79.6365 73.8484 3.59263 88.6181 3.59263 38.3213C3.59263 19.5598 20.3582 0 50.6959 0C58.2804 0 65.4656 1.79631 72.0521 5.18934C78.439 8.38279 85.6242 5.38894 89.2169 2.19549L89.8156 1.59671H93.0091L99.7952 42.1136H98.398C91.0132 21.5557 76.6427 4.39098 50.6959 4.39098C29.739 4.39098 23.5517 17.1648 23.5517 26.9447C23.5517 68.4595 99.5956 54.2886 99.5956 101.991C99.5956 122.548 82.83 142.707 50.6959 142.707C41.7144 142.707 34.3295 140.911 27.7431 137.717C21.3562 134.524 14.1709 137.518 10.5783 140.711L9.97952 141.31H6.78607L0 100.793H1.39713C10.5783 126.74 27.7431 138.915 50.6959 138.516Z" fill="#4F7A4A"/>
<path d="M165.719 72.8505C157.536 98.1984 129.394 88.6181 129.593 120.952C129.793 147.497 165.719 138.516 165.719 119.355V72.8505ZM175.699 141.11C169.312 141.11 165.719 137.518 165.719 131.131C151.748 149.493 105.643 148.296 105.643 120.952C105.643 83.4288 163.923 106.182 163.923 56.4841C162.127 49.4984 158.334 44.1095 150.75 44.1095C136.579 44.1095 123.007 61.2742 115.822 81.6324H114.425L119.813 41.1156H123.206C126.799 44.3091 133.585 47.3029 140.172 44.5086C144.962 41.5148 149.752 39.9181 157.536 39.9181C184.88 39.9181 189.271 58.2804 189.67 72.8505V120.952C189.67 127.538 190.868 139.114 205.039 139.114V141.11H175.699Z" fill="#4F7A4A"/>
<path d="M268.761 141.11H228.643V139.114C240.419 139.114 239.022 130.931 237.425 124.544L216.668 61.4738C214.672 54.8873 209.083 43.3111 194.912 43.3111V41.3152H228.444C234.83 41.3152 236.427 45.307 238.423 51.2947L266.565 134.723L289.518 61.4738C291.115 55.2865 294.907 43.3111 280.736 43.3111V41.3152H314.467V43.3111C300.296 43.3111 295.905 54.6877 293.71 61.4738L268.761 141.11Z" fill="#4F7A4A"/>
<path d="M337.393 88.6181V91.4124C337.393 99.7952 338.192 107.779 339.788 114.565C341.585 92.6099 366.134 83.4288 382.102 81.832C380.305 59.8771 375.715 43.5107 360.745 43.5107C343.381 43.5107 337.393 63.2701 337.393 88.6181ZM387.491 85.4247C370.126 85.4247 336.994 95.8034 345.377 127.738C350.167 134.923 357.153 139.114 367.132 139.114C384.297 139.114 396.273 126.54 400.863 108.777H405.254C399.266 128.736 388.089 143.106 362.941 143.106C331.006 143.106 312.445 119.954 312.445 91.4124V88.6181C312.445 61.0746 330.009 39.5189 360.745 39.5189C388.888 39.5189 406.851 59.4779 406.851 85.4247H387.491Z" fill="#4F7A4A"/>
<path d="M329.107 176.843L329.783 175.495C330.259 173.986 331.488 174.401 332.93 174.246C334.371 174.091 335.218 175.185 334.742 176.695C334.214 178.574 332.738 182.651 331.647 185.229C328.626 192.752 325.299 196.572 321.515 196.978C319.983 197.142 318.654 196.647 317.728 195.653C315.256 193.001 316.157 187.801 317.385 180.561C318.019 177.121 318.643 173.591 318.774 170.569C318.919 166.817 318.233 165.524 317.824 165.112C317.715 164.941 317.306 164.53 315.865 164.684C315.504 164.723 312.039 165.55 308.156 181.186C306.754 186.805 305.812 192.465 305.339 195.705C305.053 197.285 304.728 198.505 304.548 198.524C304.367 198.543 304.187 198.563 304.187 198.563C304.187 198.563 303.096 198.589 301.735 198.643C300.374 198.698 299.277 197.813 299.341 196.713C299.405 195.612 298.794 195.86 297.738 197.067C296.432 198.483 295.399 199.049 294.527 199.416C294.086 199.555 293.646 199.693 293.195 199.742C292.024 199.867 290.804 199.542 289.726 198.838C286.682 196.795 285.388 192.377 285.506 184.982C285.647 179.499 286.541 173.388 287.107 169.317C287.384 167.647 287.59 166.167 287.683 165.337C287.673 165.247 287.664 165.157 287.654 165.067L288.204 159.995C288.316 159.345 288.429 158.695 288.532 157.955C288.686 156.845 288.4 155.873 287.939 155.831C287.659 155.77 287.38 155.709 287.109 155.738C283.718 155.555 282.324 156.16 281.742 156.678C281.571 156.788 281.24 157.097 281.147 157.927C281.044 158.667 280.03 159.414 278.679 159.558C277.327 159.703 276.021 158.568 276.307 156.988C276.593 155.408 277.269 154.059 278.344 153.033C280.252 151.279 283.106 150.699 286.488 150.792C288.039 150.808 289.464 149.653 289.66 148.083C289.744 147.162 289.837 146.332 289.94 145.592C290.136 144.022 291.442 142.606 292.884 142.451C294.326 142.297 295.272 143.471 295.076 145.041C294.912 146.061 294.777 147.352 294.561 148.742C294.365 150.312 295.06 151.696 296.08 151.86C296.73 151.972 297.38 152.085 298.03 152.197C298.77 152.3 299.51 152.403 300.251 152.506C301.551 152.731 302.706 151.605 302.812 150.044C303.011 147.653 303.159 145.633 303.265 144.072C303.371 142.511 304.587 141.105 305.939 140.96C307.29 140.815 308.326 141.98 308.22 143.54C308.002 145.751 307.802 148.142 307.613 150.623C307.507 152.184 307.552 153.455 307.732 153.435C307.822 153.426 307.912 153.416 308.002 153.406C311.574 153.57 313.058 152.955 313.64 152.437C313.811 152.328 314.232 152.009 314.406 151.079C314.489 150.159 315.493 149.322 316.845 149.177C318.196 149.032 319.503 150.168 319.307 151.739C319.04 153.499 318.284 154.947 317.129 156.073C315.632 157.418 313.698 158.081 311.356 158.333C310.635 158.41 309.914 158.487 309.184 158.474C308.003 158.51 306.948 159.717 306.842 161.277C306.674 163.118 306.507 164.959 306.33 166.709C306.224 168.27 306.594 168.321 307.26 166.883C309.57 162.078 312.132 159.616 315.105 159.298C318.258 158.959 320.125 160.217 321.151 161.292C324.749 165.098 323.337 173.179 321.987 180.979C321.546 183.669 321.096 186.269 320.958 188.38C320.935 189.02 320.903 189.571 320.861 190.031C320.868 190.941 322.158 191.076 323.123 189.879C324.249 188.483 325.469 186.256 326.762 183.018C327.409 181.4 328.622 178.262 329.107 176.843ZM299.848 181.895L299.948 181.975C300.424 180.466 300.749 179.246 300.749 179.246C300.749 179.246 300.884 177.956 300.99 176.395C301.449 171.334 301.88 166.002 302.259 161.04C302.365 159.479 301.3 158.044 299.91 157.829C299.07 157.645 298.23 157.462 297.39 157.278C296.83 157.156 296.271 157.034 295.711 156.912C294.781 156.738 293.928 157.285 293.835 158.115C293.793 158.576 293.751 159.036 293.709 159.496L293.07 164.577C293.037 165.127 292.996 165.587 292.934 165.867C292.851 166.788 292.645 168.268 292.388 170.118C291.803 174.009 290.889 179.939 290.809 185.142C290.62 192.727 292.265 194.464 292.754 194.776C292.754 194.776 293.867 194.11 294.823 192.823C295.688 191.545 296.837 189.508 298.13 186.271C298.786 184.743 299.353 183.224 299.848 181.895Z" fill="#F27D72"/>
<path d="M356.196 172.48L356.016 172.499C357.458 172.345 358.404 173.519 358.027 175.109C357.082 179.038 354.856 185.474 350.026 189.728C347.355 192.02 344.669 193.31 341.786 193.619C341.695 193.629 341.605 193.639 341.515 193.648C337.631 193.974 334.365 192.41 332.286 189.17C330.326 186.191 329.393 181.734 329.672 176.692C329.99 172.01 331.299 167.221 333.275 163.546C335.855 158.713 339.398 156.055 343.22 156.009C346.503 156.022 348.379 157.37 349.415 158.535C351.697 161.115 351.452 164.787 351.369 165.707C351.257 168.909 349.593 172.095 346.53 174.975C344.13 177.237 340.87 179.136 337.875 180.095C337.254 180.253 336.723 180.401 336.182 180.459C335.291 180.646 334.615 181.994 335.05 183.497C335.355 184.649 335.732 185.611 336.27 186.373C337.364 188.079 338.902 188.825 340.984 188.693C342.976 188.571 344.8 187.737 346.798 185.973C350.051 183.164 351.869 178.868 352.882 175.57C353.358 174.06 354.755 172.635 356.196 172.48ZM334.82 172.859L334.92 172.939C334.634 174.519 335.85 175.664 337.334 175.05C338.206 174.683 339.248 174.206 340.361 173.54C343.17 171.69 346.214 168.629 346.246 165.527L346.236 165.437C346.227 165.347 346.217 165.257 346.217 165.257C346.249 164.707 346.236 162.885 345.399 161.882C345.19 161.631 344.662 160.958 342.931 160.961C340.289 160.971 338.246 164.016 337.259 165.853C336.2 167.88 335.37 170.339 334.82 172.859Z" fill="#F27D72"/>
<path d="M191.492 182.289C196.283 182.289 199.676 184.285 200.873 188.277V186.281C200.873 183.687 202.27 182.289 204.865 182.289H235.203C261.549 182.689 282.905 207.637 282.905 252.146C282.905 296.056 262.147 320.805 236.4 322.003H162.153V320.007C176.324 320.007 177.521 308.43 177.521 301.844V202.448C177.521 195.862 176.324 184.285 162.153 184.285V182.289H191.492ZM201.472 301.844C201.472 308.43 202.669 318.011 216.84 318.011H225.024C253.166 318.011 258.954 296.255 258.954 252.146C258.954 208.037 253.166 186.281 225.024 186.281H216.84C202.669 186.281 201.472 195.862 201.472 202.448V301.844Z" fill="#4F7A4A"/>
<path d="M346.973 253.743C338.79 279.091 310.648 269.51 310.847 301.844C311.047 328.389 346.973 319.408 346.973 300.247V253.743ZM356.953 322.003C350.566 322.003 346.973 318.41 346.973 312.023C333.002 330.385 286.897 329.188 286.897 301.844C286.897 264.321 345.177 287.074 345.177 237.376C343.381 230.391 339.588 225.002 332.004 225.002C317.833 225.002 304.261 242.166 297.076 262.525H295.678L301.067 222.008H304.46C308.053 225.201 314.839 228.195 321.426 225.401C326.216 222.407 331.006 220.81 338.79 220.81C366.134 220.81 370.525 239.173 370.924 253.743V301.844C370.924 308.43 372.122 320.007 386.293 320.007V322.003H356.953Z" fill="#4F7A4A"/>
<path d="M434.947 182.289V184.285C420.776 184.285 419.579 195.862 419.579 202.448V216.22H443.131V219.014H419.579V280.887C419.579 305.437 429.958 318.21 440.336 318.21V322.003C418.98 322.003 397.824 309.428 395.628 284.679V219.014H380.26V216.22H395.628V192.269C395.628 185.882 399.221 182.289 405.608 182.289H434.947Z" fill="#4F7A4A"/>
<path d="M468.165 269.51V272.305C468.165 280.687 468.963 288.671 470.56 295.457C472.356 273.502 496.906 264.321 512.873 262.724C511.077 240.769 506.486 224.403 491.517 224.403C474.153 224.403 468.165 244.162 468.165 269.51ZM518.262 266.317C500.898 266.317 467.766 276.696 476.149 308.63C480.939 315.815 487.925 320.007 497.904 320.007C515.069 320.007 527.044 307.433 531.635 289.669H536.026C530.038 309.628 518.861 323.999 493.713 323.999C461.778 323.999 443.216 300.846 443.216 272.305V269.51C443.216 241.967 460.78 220.411 491.517 220.411C519.659 220.411 537.623 240.37 537.623 266.317H518.262Z" fill="#4F7A4A"/>
</svg>
